<?xml version="1.0" encoding="UTF-8"?>
<!DOCTYPE svg PUBLIC "-//W3C//DTD SVG 1.1//EN" "http://www.w3.org/Graphics/SVG/1.1/DTD/svg11.dtd">
<!-- Creator: CorelDRAW X7 -->
<svg xmlns="http://www.w3.org/2000/svg" xml:space="preserve" width="10in" height="10in" version="1.1" style="shape-rendering:geometricPrecision; text-rendering:geometricPrecision; image-rendering:optimizeQuality; fill-rule:evenodd; clip-rule:evenodd"
viewBox="0 0 10000 10000"
 xmlns:xlink="http://www.w3.org/1999/xlink">
 <defs>
  <style type="text/css">
   <![CDATA[
    .fil14 {fill:#110B07}
    .fil43 {fill:#D59064}
    .fil30 {fill:#E87D4A}
    .fil31 {fill:#E97F4C}
    .fil34 {fill:#E9804B}
    .fil28 {fill:#EA824B}
    .fil29 {fill:#EA824C}
    .fil35 {fill:#EA824D}
    .fil36 {fill:#EB834B}
    .fil33 {fill:#EB834D}
    .fil27 {fill:#F0954C}
    .fil26 {fill:#F2994C}
    .fil37 {fill:#F38E5F}
    .fil23 {fill:#F6A54D}
    .fil38 {fill:#F77C4E}
    .fil24 {fill:#F7A74B}
    .fil6 {fill:#F8A169}
    .fil19 {fill:#F8AA4C}
    .fil18 {fill:#F8AB4D}
    .fil17 {fill:#F8AC4D}
    .fil13 {fill:#F98A4A}
    .fil3 {fill:#F9A169}
    .fil20 {fill:#F9AE4B}
    .fil25 {fill:#FA864A}
    .fil22 {fill:#FA874B}
    .fil11 {fill:#FD9251}
    .fil9 {fill:#FE934C}
    .fil5 {fill:#FEA36A}
    .fil21 {fill:#FEB789}
    .fil32 {fill:#FEBA90}
    .fil16 {fill:#FEBB91}
    .fil10 {fill:#FF934D}
    .fil45 {fill:#E1996C;fill-opacity:0.835294}
    .fil44 {fill:#E79D70;fill-opacity:0.870588}
    .fil41 {fill:#E3996B;fill-opacity:0.882353}
    .fil42 {fill:#DC9364;fill-opacity:0.933333}
    .fil39 {fill:#D08E64;fill-opacity:0.980392}
    .fil4 {fill:#E5DFE4;fill-opacity:0.988235}
    .fil7 {fill:#E6DFE3;fill-opacity:0.988235}
    .fil12 {fill:#E6E0E5;fill-opacity:0.988235}
    .fil40 {fill:#E89D6D;fill-opacity:0.992157}
    .fil15 {fill:#FEA46A;fill-opacity:0.992157}
    .fil1 {fill:#110A06;fill-opacity:0.996078}
    .fil0 {fill:#120B07;fill-opacity:0.996078}
    .fil46 {fill:#CB8960;fill-opacity:0.996078}
    .fil8 {fill:#FDA36A;fill-opacity:0.996078}
    .fil2 {fill:#FEA369;fill-opacity:0.996078}
   ]]>
  </style>
 </defs>
 <g id="Layer_x0020_1">
  <metadata id="CorelCorpID_0Corel-Layer"/>
  <g id="thumbnail-background.svg">
   <g>
    <path class="fil0" d="M7412 651c26,0 52,0 78,0 0,6 0,12 0,17 -583,1183 -1184,2357 -1803,3521 -288,401 -446,858 -476,1372 13,377 130,707 351,992 273,334 588,604 945,811 18,30 44,48 78,52 7,24 23,36 47,35 15,20 36,31 62,34 7,24 23,36 47,35 468,263 931,530 1390,802 222,112 446,218 671,319 -5,20 -18,32 -39,35 -234,-79 -461,-180 -679,-302 -520,-299 -1041,-598 -1562,-898 -288,-191 -558,-410 -812,-655 -172,-190 -321,-400 -445,-630 -131,-354 -152,-716 -62,-1087 145,-447 343,-862 593,-1243 563,-1047 1101,-2112 1616,-3193 0,-5 0,-11 0,-17z"/>
   </g>
   <g>
    <path class="fil1" d="M8255 651c26,0 53,0 79,0 0,6 0,12 0,17 -159,391 -339,771 -539,1139 -551,958 -1082,1930 -1593,2917 -179,468 -127,899 156,1294 260,303 560,545 898,725 29,36 65,59 109,69 37,32 79,55 125,69 8,24 23,36 47,35 412,253 833,483 1265,690 -5,20 -18,31 -39,34 -673,-313 -1321,-678 -1944,-1095 -204,-157 -388,-338 -554,-544 -211,-302 -279,-642 -203,-1018 39,-155 92,-305 156,-449 524,-981 1060,-1953 1608,-2916 160,-308 303,-625 429,-950 0,-5 0,-11 0,-17z"/>
   </g>
   <g>
    <path class="fil2" d="M7412 668c-515,1081 -1053,2146 -1616,3193 -250,381 -448,796 -593,1243 -90,371 -69,733 62,1087 124,230 273,440 445,630 254,245 524,464 812,655 521,300 1042,599 1562,898 218,122 445,223 679,302 21,-3 34,-15 39,-35 50,23 102,34 156,35 0,69 0,138 0,207 -44,273 -190,428 -437,466 -99,0 -198,0 -297,0 -1790,-23 -3581,-23 -5371,0 -437,0 -874,0 -1311,0 -266,-3 -433,-147 -500,-432 0,-2611 0,-5223 0,-7834 41,-209 156,-344 343,-406 2009,-9 4018,-12 6027,-9z"/>
   </g>
   <g>
    <path class="fil3" d="M7490 668c26,0 52,0 78,0 -600,1293 -1248,2553 -1943,3780 -187,346 -294,720 -321,1122 2,393 124,733 367,1018 97,106 193,213 289,319 181,157 363,309 547,457 -357,-207 -672,-477 -945,-811 -221,-285 -338,-615 -351,-992 30,-514 188,-971 476,-1372 619,-1164 1220,-2338 1803,-3521z"/>
   </g>
   <g>
    <path class="fil4" d="M7568 668c21,0 42,0 63,0 -25,90 -59,177 -102,259 -650,1289 -1316,2566 -1998,3831 -317,811 -174,1504 429,2080 254,234 524,441 812,621 600,349 1203,688 1811,1018 123,58 248,107 375,147 0,17 0,35 0,52 -54,-1 -106,-12 -156,-35 -225,-101 -449,-207 -671,-319 -459,-272 -922,-539 -1390,-802 -7,-25 -23,-36 -47,-35 -26,-3 -47,-14 -62,-34 -8,-25 -23,-36 -47,-35 -18,-30 -44,-47 -78,-52 -184,-148 -366,-300 -547,-457 -96,-106 -192,-213 -289,-319 -243,-285 -365,-625 -367,-1018 27,-402 134,-776 321,-1122 695,-1227 1343,-2487 1943,-3780z"/>
   </g>
   <g>
    <path class="fil5" d="M7631 668c208,0 416,0 624,0 -126,325 -269,642 -429,950 -548,963 -1084,1935 -1608,2916 -64,144 -117,294 -156,449 -76,376 -8,716 203,1018 166,206 350,387 554,544 623,417 1271,782 1944,1095 21,-3 34,-14 39,-34 51,15 103,26 156,34 0,328 0,656 0,984 -127,-40 -252,-89 -375,-147 -608,-330 -1211,-669 -1811,-1018 -288,-180 -558,-387 -812,-621 -603,-576 -746,-1269 -429,-2080 682,-1265 1348,-2542 1998,-3831 43,-82 77,-169 102,-259z"/>
   </g>
   <g>
    <path class="fil6" d="M8334 668c26,0 52,0 78,0 -134,365 -293,716 -477,1053 -523,926 -1038,1858 -1545,2796 -344,690 -242,1285 304,1786 180,160 368,306 562,440 -338,-180 -638,-422 -898,-725 -283,-395 -335,-826 -156,-1294 511,-987 1042,-1959 1593,-2917 200,-368 380,-748 539,-1139z"/>
   </g>
   <g>
    <path class="fil7" d="M8412 668c20,0 41,0 62,0 -140,385 -309,754 -507,1105 -517,921 -1027,1848 -1531,2778 -305,616 -230,1165 227,1648 210,194 434,367 671,518 409,240 820,476 1234,708 127,64 257,119 390,164 0,17 0,34 0,51 -53,-8 -105,-19 -156,-34 -432,-207 -853,-437 -1265,-690 -7,-25 -23,-36 -47,-35 -46,-14 -88,-37 -125,-69 -28,-36 -65,-59 -109,-69 -194,-134 -382,-280 -562,-440 -546,-501 -648,-1096 -304,-1786 507,-938 1022,-1870 1545,-2796 184,-337 343,-688 477,-1053z"/>
   </g>
   <g>
    <path class="fil8" d="M8474 668c259,11 421,154 484,432 0,40 0,80 0,121 -302,684 -617,1363 -945,2036 -215,431 -439,857 -671,1277 -270,487 -210,916 180,1286 79,66 157,132 234,198 -215,-117 -400,-278 -554,-483 -108,-172 -145,-362 -110,-570 34,-138 81,-270 141,-396 569,-1040 1089,-2110 1561,-3210 11,-52 11,-104 0,-156 -493,1148 -1034,2264 -1624,3348 -92,171 -141,355 -148,553 -1,81 7,162 23,241 82,199 199,369 352,509 99,75 197,150 296,225 245,135 484,278 719,431 115,64 235,119 359,164 19,-4 29,-16 31,-35 51,16 103,27 156,35 0,305 0,610 0,915 -133,-45 -263,-100 -390,-164 -414,-232 -825,-468 -1234,-708 -237,-151 -461,-324 -671,-518 -457,-483 -532,-1032 -227,-1648 504,-930 1014,-1857 1531,-2778 198,-351 367,-720 507,-1105z"/>
   </g>
   <g>
    <path class="fil9" d="M2822 1117c91,-6 180,8 265,43 17,24 19,50 8,78 -113,-74 -235,-105 -367,-95 35,-3 66,-12 94,-26z"/>
   </g>
   <g>
    <path class="fil10" d="M1916 1359c-15,0 -31,0 -47,0 -102,-60 -212,-78 -327,-52 -32,67 -45,67 -39,0 -29,22 -57,22 -86,0 55,-68 123,-114 203,-138 46,11 93,23 140,34 59,-31 111,-22 156,26 -47,-22 -83,-7 -109,43 34,34 71,62 109,87z"/>
   </g>
   <g>
    <path class="fil11" d="M3119 1359c-64,-25 -126,-22 -188,8 -43,55 -74,115 -93,181 -6,-2 -11,-5 -16,-8 64,-124 32,-190 -94,-199 -40,-20 -82,-40 -125,-60 148,-96 299,-102 453,-17 31,25 52,56 63,95z"/>
   </g>
   <g>
    <path class="fil12" d="M8958 1221c0,46 0,92 0,138 -289,634 -583,1266 -882,1898 -221,443 -450,880 -687,1312 -89,174 -144,361 -164,560 9,141 48,270 117,389 70,94 145,183 226,267 436,333 899,612 1390,837 0,17 0,35 0,52 -53,-8 -105,-19 -156,-35 -159,-96 -321,-188 -484,-276 -39,-41 -86,-70 -141,-86 -57,-20 -109,-49 -156,-86 -7,-24 -23,-36 -47,-35 -36,-8 -67,-25 -93,-52 -8,-24 -23,-35 -47,-34 -30,-11 -56,-28 -78,-52 -77,-66 -155,-132 -234,-198 -390,-370 -450,-799 -180,-1286 232,-420 456,-846 671,-1277 328,-673 643,-1352 945,-2036z"/>
   </g>
   <g>
    <path class="fil13" d="M2307 1359c0,-6 0,-12 0,-18 38,-45 75,-94 109,-146 -8,-51 2,-100 31,-147 20,26 20,52 0,78 22,5 43,-1 63,-18 55,-55 104,-115 148,-181 10,35 10,69 0,104 -5,-17 -10,-35 -16,-52 -59,106 -135,195 -226,267 23,29 44,23 62,-17 -5,-6 -10,-11 -15,-17 48,-25 92,-57 132,-95 7,8 15,14 24,17 56,-45 119,-60 187,-43 -118,22 -207,91 -265,207 10,6 21,12 31,18 -77,4 -149,24 -219,60 -16,-3 -32,-9 -46,-17z"/>
   </g>
   <g>
    <path class="fil14" d="M7756 6018c22,24 48,41 78,52 7,24 23,36 47,34 26,27 57,44 93,52 8,25 23,36 47,35 47,37 99,66 156,86 40,42 86,71 141,86 163,88 325,180 484,276 -2,19 -12,31 -31,35 -124,-45 -244,-100 -359,-164 -235,-153 -474,-296 -719,-431 -99,-75 -197,-150 -296,-225 -153,-140 -270,-310 -352,-509 -16,-79 -24,-160 -23,-241 7,-198 56,-382 148,-553 590,-1084 1131,-2200 1624,-3348 11,52 11,104 0,156 -472,1100 -992,2170 -1561,3210 -60,126 -107,258 -141,396 -35,208 2,398 110,570 154,205 339,366 554,483z"/>
   </g>
   <g>
    <path class="fil15" d="M8958 1359c0,1754 0,3509 0,5263 -491,-225 -954,-504 -1390,-837 -81,-84 -156,-173 -226,-267 -69,-119 -108,-248 -117,-389 20,-199 75,-386 164,-560 237,-432 466,-869 687,-1312 299,-632 593,-1264 882,-1898z"/>
   </g>
   <g>
    <path class="fil16" d="M2307 1341c0,6 0,12 0,18 -3,29 0,58 7,86 34,-22 68,-22 102,0 25,-85 77,-119 156,-104 -14,153 6,167 63,44 26,-27 58,-42 93,-44 126,9 158,75 94,199 5,3 10,6 16,8 19,-66 50,-126 93,-181 62,-30 124,-33 188,-8 9,11 19,22 31,34 -10,16 -15,33 -16,52 -3,27 -13,50 -31,69 66,83 61,157 -16,224 -10,23 -26,41 -47,52 -17,32 -37,61 -62,86 -68,-10 -136,-30 -203,-60 46,6 93,6 141,0 -53,-19 -102,-45 -149,-78 3,-29 19,-52 47,-69 10,-23 10,-46 0,-69 -50,68 -94,68 -133,0 31,-28 68,-49 110,-60 54,-94 31,-149 -71,-164 -94,37 -133,112 -117,224 12,59 28,116 47,173 -28,22 -54,48 -78,77 -52,21 -91,7 -117,-43 -7,25 -20,45 -39,61 -45,3 -87,6 -125,8 -36,0 -73,0 -109,0 10,-81 -5,-96 -47,-43 -57,37 -112,34 -164,-8 -35,15 -69,32 -102,51 -23,-15 -36,-38 -39,-69 -7,32 -26,52 -54,61 -66,16 -128,7 -188,-26 -36,50 -81,61 -132,34 -33,-162 -54,-168 -63,-17 -33,31 -72,42 -117,35 -17,-149 -19,-299 -8,-449 58,-92 115,-92 172,0 26,-64 71,-84 133,-60 9,37 20,74 31,112 57,-38 117,-44 180,-18 38,-33 66,-73 85,-120 16,0 32,0 47,0 19,-13 40,-19 63,-18 2,23 -3,43 -16,61 35,11 53,37 55,77 41,-43 90,-60 148,-51 -13,-118 34,-164 141,-138 0,17 0,34 0,51z"/>
   </g>
   <g>
    <path class="fil17" d="M2681 1600c-26,0 -52,0 -78,0 -16,-112 23,-187 117,-224 102,15 125,70 71,164 -42,11 -79,32 -110,60z"/>
   </g>
   <g>
    <path class="fil18" d="M3103 1635c-32,-3 -58,9 -78,34 2,-18 0,-35 -8,-51 -60,-26 -99,-72 -117,-139 21,-89 73,-121 156,-94 68,25 76,63 24,112 -33,-55 -72,-63 -118,-26 46,41 90,84 133,129 7,11 10,22 8,35z"/>
   </g>
   <g>
    <path class="fil19" d="M1916 1600c-15,0 -31,0 -47,0 4,-22 -1,-39 -15,-52 -11,-15 -27,-21 -47,-17 -5,-52 16,-75 62,-69 -3,-45 15,-74 55,-86 8,28 10,57 8,86 16,0 31,0 47,0 0,17 0,35 0,52 -54,-2 -74,27 -63,86z"/>
   </g>
   <g>
    <path class="fil20" d="M2541 1548c-21,0 -42,0 -63,0 -15,-48 -20,-99 -15,-155 26,0 52,0 78,0 0,52 0,104 0,155z"/>
   </g>
   <g>
    <path class="fil21" d="M2681 1445c26,0 52,0 78,0 -8,57 -39,80 -93,69 -1,-25 4,-48 15,-69z"/>
   </g>
   <g>
    <path class="fil22" d="M3040 1790c21,-11 37,-29 47,-52 77,-67 82,-141 16,-224 18,-19 28,-42 31,-69 10,-2 18,-8 24,-17 75,166 41,298 -102,397 -12,-8 -18,-20 -16,-35z"/>
   </g>
   <g>
    <path class="fil23" d="M2026 1600c-16,0 -32,0 -47,0 20,-105 77,-143 171,-112 22,28 19,54 -7,78 -52,-48 -91,-36 -117,34z"/>
   </g>
   <g>
    <path class="fil24" d="M2416 1566c-5,26 -21,38 -47,34 -32,-91 -63,-91 -94,0 -20,0 -41,0 -62,0 -12,-91 -17,-183 -16,-276 21,0 42,0 63,0 0,58 0,115 0,173 41,-13 83,-16 125,-9 24,19 34,45 31,78z"/>
   </g>
   <g>
    <path class="fil25" d="M3228 1479c34,25 58,59 70,104 11,69 11,138 0,207 -6,20 -17,38 -31,52 -15,-121 -28,-242 -39,-363z"/>
   </g>
   <g>
    <path class="fil26" d="M1573 1669c-45,-5 -87,1 -125,18 -20,-50 -51,-91 -94,-121 -15,22 -36,34 -62,34 -3,-52 0,-104 8,-155 35,-25 66,-19 93,17 37,58 73,115 110,173 9,-66 1,-129 -24,-190 24,-22 47,-22 70,0 12,74 20,149 24,224z"/>
   </g>
   <g>
    <path class="fil27" d="M1791 1669c-15,0 -31,0 -46,0 -21,0 -42,0 -63,0 -16,0 -31,0 -47,0 22,-35 54,-52 94,-51 -17,-86 -51,-92 -102,-18 -33,-67 -12,-101 63,-103 84,18 118,76 101,172z"/>
   </g>
   <g>
    <path class="fil28" d="M3025 1669c20,-25 46,-37 78,-34 0,35 -6,70 -16,103 -63,26 -126,23 -187,-8 -17,-42 -20,-85 -8,-130 16,28 35,54 55,78 29,13 55,10 78,-9z"/>
   </g>
   <g>
    <path class="fil29" d="M1354 1566c0,92 5,184 16,276 -31,5 -54,-7 -70,-35 -8,-68 -11,-137 -8,-207 26,0 47,-12 62,-34z"/>
   </g>
   <g>
    <path class="fil30" d="M1573 1669c2,52 0,104 -8,156 -26,23 -52,23 -78,0 -9,-48 -22,-94 -39,-138 38,-17 80,-23 125,-18z"/>
   </g>
   <g>
    <path class="fil31" d="M1635 1669c16,0 31,0 47,0 -32,76 -13,105 55,87 7,-29 10,-57 8,-87 15,0 31,0 46,0 14,50 20,102 16,156 -58,4 -116,-2 -172,-18 -41,-47 -41,-93 0,-138z"/>
   </g>
   <g>
    <path class="fil32" d="M1682 1669c21,0 42,0 63,0 2,30 -1,58 -8,87 -68,18 -87,-11 -55,-87z"/>
   </g>
   <g>
    <path class="fil33" d="M1854 1548c14,13 19,30 15,52 16,0 32,0 47,0 9,58 19,116 32,173 -10,37 -31,51 -63,43 -21,-87 -32,-176 -31,-268z"/>
   </g>
   <g>
    <path class="fil34" d="M1979 1600c15,0 31,0 47,0 -6,124 38,158 132,104 15,70 -11,105 -78,103 -32,3 -58,-9 -78,-34 -20,-55 -28,-113 -23,-173z"/>
   </g>
   <g>
    <path class="fil35" d="M2213 1600c21,0 42,0 62,0 -2,82 3,162 16,242 -26,0 -52,0 -78,0 0,-81 0,-161 0,-242z"/>
   </g>
   <g>
    <path class="fil29" d="M2416 1566c18,77 20,158 8,241 -21,16 -45,21 -71,18 10,-75 15,-150 16,-225 26,4 42,-8 47,-34z"/>
   </g>
   <g>
    <path class="fil36" d="M2478 1548c21,0 42,0 63,0 18,84 34,170 47,259 -32,0 -63,0 -94,0 -10,-85 -16,-172 -16,-259z"/>
   </g>
   <g>
    <path class="fil37" d="M2603 1600c26,0 52,0 78,0 39,68 83,68 133,0 10,23 10,46 0,69 -28,17 -44,40 -47,69 47,33 96,59 149,78 -48,6 -95,6 -141,0 67,30 135,50 203,60 -130,41 -239,6 -328,-103 -19,-57 -35,-114 -47,-173z"/>
   </g>
   <g>
    <path class="fil38" d="M2182 1876c36,0 73,0 109,0 73,34 151,54 234,61 123,25 245,33 367,26 105,13 194,-22 266,-104 -95,222 -256,320 -484,294 -254,15 -470,-74 -648,-268 51,-9 103,-11 156,-9z"/>
   </g>
   <g>
    <path class="fil39" d="M7834 6070c24,-1 39,10 47,34 -24,2 -40,-10 -47,-34z"/>
   </g>
   <g>
    <path class="fil40" d="M7974 6156c24,-1 40,11 47,35 -24,1 -39,-10 -47,-35z"/>
   </g>
   <g>
    <path class="fil41" d="M8177 6277c55,16 102,45 141,86 -55,-15 -101,-44 -141,-86z"/>
   </g>
   <g>
    <path class="fil42" d="M7256 6743c44,10 81,33 109,69 -44,-10 -80,-33 -109,-69z"/>
   </g>
   <g>
    <path class="fil43" d="M7490 6881c24,-1 40,10 47,35 -24,1 -39,-11 -47,-35z"/>
   </g>
   <g>
    <path class="fil44" d="M6507 7364c34,5 60,22 78,52 -34,-4 -60,-22 -78,-52z"/>
   </g>
   <g>
    <path class="fil45" d="M6585 7416c24,-1 39,10 47,35 -24,1 -40,-11 -47,-35z"/>
   </g>
   <g>
    <path class="fil46" d="M6694 7485c24,-1 40,10 47,35 -24,1 -40,-11 -47,-35z"/>
   </g>
  </g>
 </g>
</svg>
