<?xml version="1.0" encoding="UTF-8"?>
<!DOCTYPE svg PUBLIC "-//W3C//DTD SVG 1.1//EN" "http://www.w3.org/Graphics/SVG/1.1/DTD/svg11.dtd">
<!-- Creator: CorelDRAW X7 -->
<svg xmlns="http://www.w3.org/2000/svg" xml:space="preserve" width="10in" height="10in" version="1.1" style="shape-rendering:geometricPrecision; text-rendering:geometricPrecision; image-rendering:optimizeQuality; fill-rule:evenodd; clip-rule:evenodd"
viewBox="0 0 10000 10000"
 xmlns:xlink="http://www.w3.org/1999/xlink">
 <defs>
  <style type="text/css">
   <![CDATA[
    .str0 {stroke:#663333;stroke-width:6.94488}
    .fil0 {fill:black}
    .fil4 {fill:#663333}
    .fil3 {fill:#FF6600}
    .fil2 {fill:white}
    .fil1 {fill:url(#id0)}
    .fil5 {fill:url(#id1)}
   ]]>
  </style>
  <linearGradient id="id0" gradientUnits="userSpaceOnUse" x1="4974.62" y1="5391.51" x2="4856.46" y2="4704.46">
   <stop offset="0" style="stop-opacity:1; stop-color:#B11900"/>
   <stop offset="0.411765" style="stop-opacity:1; stop-color:#B42200"/>
   <stop offset="0.639216" style="stop-opacity:1; stop-color:#EFD100"/>
   <stop offset="1" style="stop-opacity:1; stop-color:#F5E200"/>
  </linearGradient>
  <linearGradient id="id1" gradientUnits="userSpaceOnUse" x1="5197.61" y1="5456.38" x2="5425.59" y2="4543.62">
   <stop offset="0" style="stop-opacity:1; stop-color:#DB0000"/>
   <stop offset="1" style="stop-opacity:1; stop-color:#FF7300"/>
  </linearGradient>
 </defs>
 <g id="Layer_x0020_1">
  <metadata id="CorelCorpID_0Corel-Layer"/>
  <g id="_2626672230448">
   <path class="fil0" d="M5463 5057l76 23c0,-1 -3,-6 -4,-8 -6,-11 -2,-1 -7,-14 -10,-34 -2,-89 5,-123 -6,7 -61,104 -70,122z"/>
   <g>
    <path class="fil1" d="M5597 5183c56,5 110,-25 115,-85 9,-95 -127,-107 -123,-155 2,-14 22,-19 36,-17 43,4 43,40 55,41 10,1 40,-34 41,-43 1,-9 -28,-47 -87,-53 -50,-4 -98,22 -104,79 -8,93 119,92 114,140 -2,24 -25,31 -44,30 -66,-7 -72,-78 -74,-78 -4,-1 -17,26 -19,48 -6,55 41,88 90,93zm-1248 57c10,0 22,7 15,-144 -9,-200 -27,-192 -36,-191l-31 1c-8,0 -17,0 -16,5 0,9 24,76 27,151 0,6 2,23 -2,23 -4,0 -6,-5 -7,-7 -82,-136 -114,-167 -130,-166l-31 1c-7,1 -29,-6 -20,194 7,151 19,143 29,143l38 -2c3,0 11,1 11,-4 -1,-21 -19,-61 -25,-175 0,-8 -5,-52 5,-53 13,0 52,66 58,77 68,124 44,151 72,149l43 -2zm163 -90c0,20 0,32 -24,34 -21,0 -41,-12 -42,-35 -2,-24 23,-46 46,-47 20,0 18,17 19,31l1 17zm-121 11c2,24 11,74 108,70 36,-2 74,-4 74,-13 -1,-14 -5,-24 -6,-42 0,-14 -6,-133 -16,-156 -23,-56 -79,-53 -91,-53 -38,2 -70,23 -69,53 1,17 16,32 29,32 9,-1 1,-35 42,-37 18,-1 40,9 41,30 0,13 -9,16 -20,18 -45,10 -94,47 -92,98zm291 -288c-9,0 -58,15 -59,32 -2,16 -2,38 -16,38 -4,0 -7,-1 -9,-1 -17,1 -26,5 -25,39 1,8 1,14 6,14 5,-1 10,-6 18,-7 20,0 17,23 17,37 1,8 -1,30 1,85 2,24 11,123 27,123 11,-1 61,-28 61,-35 0,-8 -26,-26 -32,-145 -1,-39 -3,-68 22,-69 8,0 17,3 21,3 9,0 8,-17 8,-23 -1,-16 -2,-28 -19,-27 -6,0 -11,3 -17,3 -6,0 -9,-5 -9,-13 0,-5 12,-33 11,-45 0,-8 -2,-9 -6,-9zm129 348c48,-1 79,-32 78,-80 0,-17 -4,-24 -6,-24 -4,0 -13,40 -57,41 -38,1 -58,-31 -58,-70 -1,-34 13,-90 54,-91 33,0 32,30 41,29 15,0 24,-23 23,-36 0,-23 -26,-41 -61,-40 -80,1 -113,81 -112,150 1,59 31,122 98,121zm106 -385c-12,0 0,193 2,226 10,192 10,177 22,177l43 -3c4,0 13,0 12,-7 -1,-13 -12,-40 -16,-127 -2,-31 -5,-98 39,-101 21,-1 33,12 37,79 3,57 -14,144 -13,147 0,7 12,5 15,5l46 -2c13,-1 13,-111 11,-153 -6,-104 -37,-130 -76,-128 -14,1 -26,6 -36,12 -9,6 -16,11 -19,11 -16,1 -11,-113 -12,-130 0,-4 -3,-9 -7,-9l-48 3zm319 380c12,-2 28,0 26,-17 -1,-5 -31,-83 -47,-215 -6,-57 -2,-77 -5,-96 0,-7 -1,-8 -23,-6l-29 4c-17,2 -28,-14 -6,164 22,184 23,173 48,170l36 -4zm156 -70c42,-7 72,-38 70,-84 0,-3 -2,-25 -8,-24 -6,0 -4,51 -71,54 -25,1 -61,-13 -49,-44 12,-14 43,-21 72,-34 27,-11 51,-30 52,-68 1,-47 -36,-73 -80,-74 -11,0 -22,1 -33,5 -43,14 -79,61 -79,138l0 1c0,19 3,38 8,55l0 0 0 1c2,4 3,9 5,13 14,35 39,65 70,88 125,90 307,59 266,58 -41,0 -163,-33 -223,-85zm4 -181c-21,13 -64,21 -67,21 -5,0 -7,-4 -7,-9 0,-14 7,-33 21,-45 7,-6 16,-10 27,-11 16,0 35,10 36,30 0,5 -4,10 -10,14z"/>
    <path id="1" class="fil2" d="M5597 5183c56,5 110,-25 115,-85 9,-95 -127,-107 -123,-155 2,-14 22,-19 36,-17 43,4 43,40 55,41 10,1 40,-34 41,-43 1,-9 -28,-47 -87,-53 -50,-4 -98,22 -104,79 -8,93 119,92 114,140 -2,24 -25,31 -44,30 -66,-7 -72,-78 -74,-78 -4,-1 -17,26 -19,48 -6,55 41,88 90,93zm-1248 57c10,0 22,7 15,-144 -9,-200 -27,-192 -36,-191l-31 1c-8,0 -17,0 -16,5 0,9 24,76 27,151 0,6 2,23 -2,23 -4,0 -6,-5 -7,-7 -82,-136 -114,-167 -130,-166l-31 1c-7,1 -29,-6 -20,194 7,151 19,143 29,143l38 -2c3,0 11,1 11,-4 -1,-21 -19,-61 -25,-175 0,-8 -5,-52 5,-53 13,0 52,66 58,77 68,124 44,151 72,149l43 -2zm163 -90c0,20 0,32 -24,34 -21,0 -41,-12 -42,-35 -2,-24 23,-46 46,-47 20,0 18,17 19,31l1 17zm-121 11c2,24 11,74 108,70 36,-2 74,-4 74,-13 -1,-14 -5,-24 -6,-42 0,-14 -6,-133 -16,-156 -23,-56 -79,-53 -91,-53 -38,2 -70,23 -69,53 1,17 16,32 29,32 9,-1 1,-35 42,-37 18,-1 40,9 41,30 0,13 -9,16 -20,18 -45,10 -94,47 -92,98zm420 60c48,-1 79,-32 78,-80 0,-17 -4,-24 -6,-24 -4,0 -13,40 -57,41 -38,1 -58,-31 -58,-70 -1,-34 13,-90 54,-91 33,0 32,30 41,29 15,0 24,-23 23,-36 0,-23 -26,-41 -61,-40 -80,1 -113,81 -112,150 1,59 31,122 98,121zm425 -5c12,-2 28,0 26,-17 -1,-5 -31,-83 -47,-215 -6,-57 -2,-77 -5,-96 0,-7 -1,-8 -23,-6l-29 4c-17,2 -28,-14 -6,164 22,184 23,173 48,170l36 -4zm156 -70c42,-7 72,-38 70,-84 0,-3 -2,-25 -8,-24 -6,0 -4,51 -71,54 -25,1 -61,-13 -49,-44 12,-14 43,-21 72,-34 27,-11 51,-30 52,-68 1,-47 -36,-73 -80,-74 -11,0 -22,1 -33,5 -43,14 -79,61 -79,138l0 1c0,19 3,38 8,55l0 0 0 1c2,4 3,9 5,13 14,35 39,65 70,88 125,90 307,59 266,58 -41,0 -163,-33 -223,-85zm4 -181c-21,13 -64,21 -67,21 -5,0 -7,-4 -7,-9 0,-14 7,-33 21,-45 7,-6 16,-10 27,-11 16,0 35,10 36,30 0,5 -4,10 -10,14zm281 215c-23,17 -51,26 -80,26 12,2 23,3 30,3 4,0 7,1 8,1 34,14 35,28 5,38 -8,6 -18,10 -29,7 -3,1 -5,1 -8,2 -6,1 -16,2 -29,2 -54,2 -160,-6 -241,-66 -17,-11 -31,-25 -44,-41 -12,-15 -22,-31 -29,-49l0 0c-1,-2 -2,-4 -3,-7l-1 -3c10,41 19,68 23,81 1,5 2,8 2,10 5,41 -18,50 -45,53 -3,0 -4,0 -6,0 -1,1 -3,1 -5,1l0 0 0 0 -35 4c-3,0 -3,1 -4,1 -28,4 -31,4 -51,-156 0,20 0,46 -1,69 -2,51 -13,94 -42,96l-44 2c0,0 -1,0 -1,0l-1 0 0 1 -3 0c-9,0 -19,-1 -20,-13 0,-2 1,-7 2,-14l0 0c4,-24 14,-88 12,-134 -2,-32 -6,-50 -11,-61 -5,-8 -11,-10 -18,-10 -4,0 -6,4 -7,8 -4,19 -3,42 -2,56 3,62 10,93 14,111 1,7 2,12 3,16 2,42 -28,44 -43,45l0 0 -43 2c-1,0 -1,0 -2,0 -10,1 -15,2 -18,-24 -2,-14 -4,-37 -6,-75 -5,18 -15,34 -29,48l0 0c-20,21 -46,32 -76,33 -33,1 -57,-13 -75,-34 -2,-3 -4,-6 -6,-9 -9,13 -26,27 -44,37 -17,9 -36,17 -43,18 -14,0 -22,-27 -27,-59 -5,-28 -7,-59 -8,-72l0 0c-2,-40 -1,-62 -1,-75 0,-5 0,-8 0,-10 0,-2 0,-4 0,-6 0,-3 0,-5 0,-7 -1,-8 -2,-16 -10,-15 -1,0 -2,0 -2,1l0 0c-3,1 -6,3 -10,4 3,10 4,25 6,40 5,44 7,97 8,106 0,9 1,16 3,22 1,7 2,13 2,20 1,28 -20,41 -53,45 -15,2 -33,3 -52,4 -51,2 -79,-10 -95,-26 -5,-5 -8,-10 -11,-15 -8,50 -26,50 -43,50l0 0 0 0c0,0 -1,1 -1,1l-42 1c-20,1 -21,-5 -28,-29 -6,-21 -16,-59 -51,-123 -1,0 -1,0 -1,-1 -3,-5 -12,-22 -23,-38 4,67 13,105 18,129 3,12 5,20 5,27 2,33 -17,40 -37,41l0 0 0 0c-1,0 -2,0 -2,0l-1 0c-1,0 -1,0 -2,0l-37 2 0 0 -1 0 0 0c-14,1 -29,2 -36,-151 -10,-225 32,-230 49,-230l1 0 0 0 0 0 32 -1c10,-1 24,7 46,34 13,16 30,40 51,73 -4,-21 -9,-39 -12,-51 -3,-10 -5,-17 -5,-20 -1,-35 18,-41 41,-42 2,0 3,0 3,0l0 0 4 0 30 -2 1 0c10,0 28,-2 39,120 6,-13 16,-24 29,-34 17,-14 40,-22 63,-23l0 0 0 0c12,0 55,-2 84,31 1,-14 6,-25 14,-35 11,-14 22,-19 34,-21l0 -3 0 0c2,-22 19,-38 41,-49 18,-10 43,-17 50,-17 4,0 7,0 10,3 2,3 3,7 4,14 0,10 -5,26 -9,38 -1,4 -3,5 -3,7 0,2 1,4 1,5 1,0 1,0 1,0 1,0 3,0 4,-1 1,0 1,0 2,0 3,-1 6,-2 11,-2 12,-1 18,4 22,11 3,6 4,14 4,23 0,4 1,11 -1,18 0,5 -1,9 -3,12 25,-30 58,-51 100,-52 19,0 35,5 47,13 5,3 8,6 12,10 0,-29 1,-57 5,-81 0,14 5,39 12,66 1,53 5,110 6,127 10,192 10,177 22,177l43 -3c4,0 13,0 12,-7 -1,-13 -12,-40 -16,-127 -2,-31 -5,-98 39,-101 21,-1 33,12 37,79 3,57 -14,144 -13,147 0,7 12,5 15,5l46 -2c3,0 6,-9 8,-22l3 0c7,-1 4,-3 -2,-7 4,-36 3,-95 2,-124 -6,-104 -37,-130 -76,-128 -14,1 -26,6 -36,12 -9,6 -16,11 -19,11 -16,1 -11,-113 -12,-130 0,-4 -3,-9 -7,-9l-48 3c-2,0 -3,8 -4,22l-7 0c-2,0 -3,1 -4,3 5,-28 14,-47 27,-47l47 -3 0 0c5,0 9,2 11,5l0 0c2,3 4,6 4,10 1,0 1,2 1,3 0,4 0,11 0,21 0,18 -1,43 1,65 0,17 1,31 2,34 2,-1 5,-3 9,-6l0 0c0,0 1,0 1,-1 6,-3 13,-7 21,-10 7,-3 16,-5 24,-5 23,-2 43,5 57,27 8,10 14,24 18,43 -11,-131 7,-132 41,-133l0 0 0 0c1,0 2,0 3,0l29 -4c12,-1 19,-1 23,0 7,2 8,6 9,12l0 0c1,8 1,16 1,25 0,16 0,36 4,72 4,30 8,57 13,82 -1,-7 -1,-14 -1,-21l0 -1 0 0 0 0c0,-41 10,-76 25,-103 21,-37 50,-60 81,-70l0 0c6,-2 12,-4 18,-5 6,-1 13,-1 19,-1l0 0c24,0 46,8 62,21 16,14 26,34 26,60 0,1 0,3 0,4 -1,26 -12,47 -27,65l0 0c-15,17 -33,28 -51,35 -10,4 -20,8 -30,12l-17 6c1,2 2,3 4,4 3,4 8,7 14,9 7,3 16,5 23,4 32,-1 36,-14 38,-19 7,-21 11,-35 33,-36 7,0 10,5 13,11 2,8 4,19 4,22 1,29 -9,55 -27,77 -6,8 -13,14 -20,20 21,13 46,25 72,34 8,4 16,6 24,9 -7,-4 -14,-10 -20,-16 -17,-17 -27,-40 -24,-70 1,-12 5,-25 10,-36 8,-20 19,-35 30,-42 -11,-15 -18,-35 -16,-61l0 0 0 0 0 0 0 0 0 -1c4,-40 25,-71 55,-92 24,-17 53,-24 81,-21l0 0c31,3 54,14 70,26 16,13 24,29 23,37 -1,11 -13,31 -28,47 -11,13 -24,24 -35,28 31,21 59,49 55,98 -4,41 -25,72 -55,95zm-58 -231c7,6 17,13 28,20 -5,-8 -13,-17 -28,-20zm-34 117c-11,-6 -23,-12 -34,-20 8,20 24,48 62,51l0 0c4,1 8,1 11,0 -3,-11 -20,-20 -39,-31zm28 31l0 0m-105 -34l0 0 0 0 0 0zm-1124 18c1,15 1,28 1,40 6,-11 14,-21 23,-31 19,-21 44,-36 68,-44 0,-1 -1,-1 -2,-2 -6,-5 -15,-7 -23,-7 -8,1 -7,-1 -8,0 -6,21 -11,36 -35,37l0 0c-9,0 -18,-4 -25,-11l0 -1c0,6 1,13 1,19zm110 94c0,0 0,0 0,-1 -1,3 -2,4 -1,2l1 -1zm-19 -21c5,4 11,6 17,7l-1 -14c0,-2 0,-3 0,-4l0 -1c0,0 0,-1 0,-4 0,-7 -2,-14 -10,-13l0 0c-7,0 -13,2 -16,5 0,0 0,1 0,4 0,1 0,1 0,2 1,7 4,13 10,18zm208 60c0,1 1,2 1,0 10,-7 19,-13 19,-16 0,-8 -26,-26 -32,-145 -1,-39 -3,-68 22,-69 8,0 17,3 21,3 9,0 8,-17 8,-23 -1,-16 -2,-28 -19,-27 -6,0 -11,3 -17,3 -6,0 -9,-5 -9,-13 0,-5 12,-33 11,-45 0,-8 -2,-9 -6,-9 -9,0 -58,15 -59,32 -2,16 -2,38 -16,38 -4,0 -7,-1 -9,-1 -17,1 -26,5 -25,39 1,8 1,14 6,14 5,-1 10,-6 18,-7 20,0 17,23 17,37 1,8 -1,30 1,85 2,24 11,123 27,123 6,-1 26,-10 41,-19zm8 -175c1,19 2,35 4,49 3,-29 11,-59 26,-85 -5,4 -11,6 -19,6 -3,0 -6,0 -9,-1l-3 -1c0,9 0,20 1,32zm203 56c2,0 4,1 6,2l-1 -21 0 0 0 -6c-1,-12 -2,-33 -3,-58 -1,2 -2,5 -4,7l0 0 0 0c-10,17 -24,29 -41,30 -7,0 -10,-5 -14,-12 -4,-7 -10,-18 -27,-17 -7,0 -11,2 -13,4 -7,13 -10,34 -10,50 0,18 5,35 15,46 8,10 20,16 36,16 18,0 23,-10 26,-14l0 0 0 0c9,-16 14,-27 30,-27l0 0zm8 -234c-1,2 -1,5 -1,8 0,-2 1,-5 1,-8zm93 89c1,0 0,0 0,0l0 0zm380 6c2,-1 5,-2 7,-2 -1,-2 -2,-3 -3,-4 -6,-5 -14,-7 -20,-7 -4,1 -7,1 -10,2 -1,1 -2,1 -2,2 -1,1 -2,2 -3,3 -2,5 -3,9 -3,14l0 0 0 0c3,0 18,-3 34,-8z"/>
   </g>
   <path class="fil3" d="M4440 4741c13,-4 17,-6 29,-2 7,2 17,9 21,15 -25,-13 -39,-28 -64,9 -2,4 -10,17 -10,22 9,-2 17,-3 26,-6 4,-2 17,-9 18,-8 3,3 -1,0 3,4 5,-4 -3,0 3,-3 3,2 2,2 8,1 17,-3 4,1 14,1 2,-1 4,-2 14,-3 2,6 13,19 17,22l17 6c1,0 2,0 2,1l-12 0c6,9 13,13 23,16l2 1c2,3 -3,3 4,2 -1,-8 0,2 2,-7 2,-9 -3,-15 -9,-21 -2,-3 -5,-6 -8,-9 -3,-3 -9,-8 -13,-9 0,-3 -1,0 1,-4 2,1 14,-1 18,-2 2,0 1,1 3,3 1,1 1,1 1,1 0,-5 0,-2 -1,-6 1,2 1,3 4,2 0,0 0,0 0,0l2 -1c-10,-25 -29,-30 -51,-35 -4,-1 -2,0 -5,0 -8,3 -8,-2 -22,3 -4,2 -1,4 -9,2 -4,-1 -4,-3 -9,-3 -10,-2 -38,-2 -33,16 7,-3 3,-3 7,-6 2,-2 4,-1 7,-2zm-180 47c19,-6 61,-35 64,-36l11 0c2,-1 4,-8 10,-2 -5,0 -11,0 -5,7 7,0 5,-1 6,-6 2,-7 1,-1 6,-5 -3,5 -4,2 -5,8 -1,5 3,3 3,8 1,-1 1,0 2,-2 0,-1 1,-4 1,-4 3,-7 6,-16 12,-20 -2,7 -6,11 -6,21 4,-4 7,-9 14,-11 -6,5 -16,17 -15,27 6,-5 8,-6 17,-8l-4 2c4,1 7,5 11,1 -1,-3 0,-1 -2,-2 -1,-1 1,0 -1,-1 -8,-2 2,2 -3,0 -2,-13 1,-5 5,-11 -3,-3 -1,-1 -4,-2 -4,-2 -1,2 -3,-2 3,-1 -3,2 4,1 4,-1 1,-1 5,-3l1 3c5,-5 11,-6 15,-2 7,5 0,8 10,14 0,0 0,0 1,0 3,-1 8,0 10,-3 3,-6 -5,-1 -8,-1 -3,-3 -4,-4 -2,-8 5,-1 3,1 7,-1 4,-2 1,-2 4,-5l3 13c3,-3 4,-6 7,-9 2,-3 7,-5 9,-8 -3,1 -5,0 -7,2 -4,3 0,3 -7,6 -5,-18 23,-18 33,-16 5,0 5,2 9,3 8,2 5,0 9,-2 14,-5 14,0 22,-3l-7 -4c-8,-2 -15,-4 -23,-7 -98,-32 -113,-2 -182,48 -5,4 -23,16 -27,20zm324 0c3,0 2,-2 3,2 11,-10 23,-15 42,-18 22,-2 27,6 42,-10 -3,-4 -16,-10 -20,-15 -8,-9 -6,-12 -17,-19 -15,-9 -4,0 -20,-13 -6,-5 -14,-15 -22,-14 -4,6 0,12 0,24 -20,6 -34,11 -56,13 6,7 18,9 29,10 -6,2 -11,1 -15,1 4,8 15,14 23,15 -4,2 -11,-2 -16,-2 4,12 12,23 25,15 12,-7 12,-14 29,-19 -5,-2 -10,0 -16,1 1,-16 20,-16 32,-9 14,8 14,10 29,15 6,1 2,-1 4,2 -12,3 -27,0 -43,4 -13,3 -26,9 -33,17zm-252 3l-11 -2c-5,-1 -8,3 -14,3 -6,-1 0,-2 -6,-1l-22 3 -3 -4 -24 3c-5,1 -18,8 -26,10 -12,4 -21,6 -33,7 12,25 39,35 72,27 14,-4 29,-11 39,-19 6,-4 9,-8 13,-14 10,-17 5,-7 15,-13zm187 2c-4,-3 -15,-16 -17,-22 -10,1 -12,2 -14,3 -10,0 3,-4 -14,-1 -6,1 -5,1 -8,-1 -6,3 2,-1 -3,3 -4,-4 0,-1 -3,-4 -2,1 0,0 -3,2 -1,1 -1,1 -3,3 -8,6 -16,8 -26,11 13,8 34,1 49,-3 -7,6 -19,9 -29,11 4,3 14,5 21,6 11,0 20,-5 26,-4 -9,4 -13,6 -24,9 11,9 47,19 68,16 -4,-7 -16,-15 -20,-29zm-109 -30c-5,2 -9,10 -10,14l0 3c-3,-1 -1,1 -3,-2l-1 -4 -1 5c-2,-1 -1,-1 -2,0 1,9 1,3 -3,6 -2,-3 -4,-7 -4,-11 2,9 0,7 -2,10 -1,-4 -2,-4 -2,-9 1,3 0,2 1,4 0,2 0,3 0,5 -4,-1 -1,1 -3,-3 -2,-3 0,-2 0,-2 0,2 0,0 0,2 0,1 0,2 0,2 -2,1 -3,1 -4,2 -3,1 -8,2 -12,1 -3,-5 -1,-4 -1,-4l-1 -5c0,-4 3,2 0,-1 -6,2 -7,12 -19,17 -15,6 -20,-1 -24,16 2,1 1,1 3,2l3 -2c0,-1 0,-3 0,-4l3 8c3,1 3,2 4,3l1 -5c1,1 1,0 1,1 1,2 2,0 4,1 14,-7 21,-1 36,-2 17,-2 23,-10 36,-13 24,-6 49,14 64,16 -9,-6 -19,-11 -29,-16 -12,-5 -20,-9 -36,-9 3,-11 14,-27 15,-31l-3 -13c-3,3 0,3 -4,5 -4,2 -2,0 -7,1 -2,4 -1,5 2,8 3,0 11,-5 8,1 -2,3 -7,2 -10,3zm-150 25c-1,0 -2,0 -4,1 -2,2 0,1 -2,2 -3,2 -1,0 -2,2l24 -3 3 4 22 -3c6,-1 0,0 6,1 6,0 9,-4 14,-3l11 2c6,-3 18,-22 18,-29 0,-5 -4,-3 -3,-8 1,-6 2,-3 5,-8 -5,4 -4,-2 -6,5 -1,5 1,6 -6,6 -6,-7 0,-7 5,-7 -6,-6 -8,1 -10,2l-11 0c-3,1 -45,30 -64,36zm349 51l-12 3c4,3 47,21 62,20 7,0 14,-2 19,-6l3 -5c-4,-2 -8,-2 -12,-3 7,-2 12,1 15,0l2 -5c-19,-4 -19,3 -32,2 -16,-1 -38,-14 -51,-22 -4,-3 -6,-5 -11,-8 -5,-3 -5,-3 -9,-8 -2,2 -3,3 -8,3 -6,0 1,-1 -4,-1 -2,0 -1,0 -3,0 1,6 3,9 7,12 24,19 26,11 37,16l-3 2zm-58 -22l-10 0c10,11 31,20 47,21 8,1 18,-1 21,1l3 -2c-11,-5 -13,3 -37,-16 -4,-3 -6,-6 -7,-12 2,0 1,0 3,0 5,0 -2,1 4,1 5,0 6,-1 8,-3 -2,-9 -1,-11 4,-17 -1,-4 0,-2 -3,-2 -4,5 -6,7 -7,13l-3 -3c-8,-10 -14,-24 -19,-32l-2 1c0,0 0,0 0,0 -3,1 -3,0 -4,-2 1,4 1,1 1,6 0,0 0,0 -1,-1 -2,-2 -1,-3 -3,-3 -4,1 -16,3 -18,2 -2,4 -1,1 -1,4 5,1 11,6 14,10l7 8c6,6 11,12 9,21 -2,9 -3,-1 -2,7 -7,1 -2,1 -4,-2zm-232 -8l-10 23c-7,13 -7,10 -13,20 1,1 -1,0 3,1 3,1 9,0 12,0 -17,8 -18,-3 -24,8 30,4 34,0 44,-30 4,-12 1,-7 7,-18 -2,-1 -3,1 -4,-1 0,-1 0,0 -1,-1l-1 5c-1,-1 -1,-2 -4,-3l-3 -8c0,1 0,3 0,4l-3 2c-2,-1 -1,-1 -3,-2zm52 -42c-2,2 -4,3 -6,4 -1,1 0,0 -1,2 -2,2 -1,1 -2,3 3,3 0,-3 0,1l1 5c0,0 -2,-1 1,4 4,1 9,0 12,-1 1,-1 2,-1 4,-2 0,0 0,-1 0,-2 0,-2 0,0 0,-2 0,0 -2,-1 0,2 2,4 -1,2 3,3 0,-2 0,-3 0,-5 -1,-2 0,-1 -1,-4 0,5 1,5 2,9 2,-3 4,-1 2,-10 0,4 2,8 4,11 4,-3 4,3 3,-6 1,-1 0,-1 2,0l1 -5 1 4c2,3 0,1 3,2l0 -3c1,-4 5,-12 10,-14 -1,0 -1,0 -1,0 -10,-6 -3,-9 -10,-14 -4,-4 -10,-3 -15,2l-1 -3c-4,2 -1,2 -5,3 -7,1 -1,-2 -4,-1 2,4 -1,0 3,2 3,1 1,-1 4,2 -4,6 -7,-2 -5,11 5,2 -5,-2 3,0 2,1 0,0 1,1 2,1 1,-1 2,2 -4,4 -7,0 -11,-1zm-172 46c7,13 30,27 49,22 -7,1 -21,-7 -25,-20 6,1 9,3 16,2 -3,-1 -6,-2 -9,-3 -16,-7 -2,-5 -31,-1zm188 -63c-2,1 -9,2 -4,13 5,10 25,5 19,-10 -4,-9 -12,-4 -15,-3zm221 -21l-4 -7c4,2 7,4 13,3 -3,-6 -16,-18 -22,-19 -3,10 1,25 13,23z"/>
   <path class="fil4 str0" d="M5070 4803c-1,-3 0,-10 0,-14 0,-4 1,-6 9,-4 8,3 24,8 31,12 7,4 5,6 3,7 -3,1 -6,0 -11,0 -5,0 -12,1 -17,1 -5,0 -7,0 -10,0 -2,0 -4,1 -5,-2z"/>
   <path class="fil5" d="M5380 5318l17 21c1,1 2,3 3,5 -80,-25 -93,-10 -166,-22l-171 -31c-258,-50 -125,4 -330,-31 20,19 61,39 94,54 -22,7 -17,-5 -33,7 30,17 119,64 140,79 2,1 3,2 5,4 28,21 23,18 71,35 129,45 264,60 380,52 109,-7 157,-13 230,-67 56,-41 132,-108 152,-186 -22,13 -27,38 -69,64 -88,54 -195,47 -323,16zm-323 114c2,0 4,1 4,-1 0,-2 -5,-22 -2,-51 0,-3 1,-16 5,-16 3,0 6,12 7,14 8,24 3,34 12,35 8,1 5,-10 16,-32 2,-3 7,-13 10,-13 4,0 2,14 2,16 -3,29 -11,49 -11,50 0,2 3,2 4,2l14 1c3,1 6,3 10,-39 4,-54 -1,-53 -3,-53l-9 -1c-4,0 -6,0 -13,7 -13,13 -14,21 -16,21 -2,0 -2,-9 -11,-24 -5,-8 -7,-8 -11,-8l-10 -1c-2,0 -8,-3 -12,52 -4,42 0,40 2,40l12 1zm149 13c1,0 4,1 4,-1 0,-1 -6,-21 -7,-21 -3,0 -10,7 -21,6 -10,-1 -14,-8 -13,-17 1,-11 10,-14 15,-14 5,1 9,3 10,3 1,0 9,-17 9,-17 0,-2 -4,-3 -5,-3 -9,-1 -18,4 -21,3 -3,0 -3,-4 -3,-6 1,-11 9,-15 17,-14 11,1 14,6 16,7 1,0 9,-15 9,-16 1,-2 -3,-2 -5,-2l-43 -4c-4,0 -14,50 -15,65 -2,23 -4,26 2,27l51 4zm51 -45c-3,-1 -3,-5 -3,-7 2,-20 7,-23 17,-22 6,1 12,4 11,11 0,10 -21,18 -25,18zm-10 -44c-2,0 -7,-3 -12,52 -4,41 0,40 3,40l12 1c1,0 4,1 4,-1 0,-1 -2,-16 -2,-25 1,-6 9,-10 13,-9 6,0 13,23 12,36 0,2 3,2 5,2l13 1c2,0 3,0 3,-1 2,-26 -17,-43 -16,-46 0,-3 17,-7 19,-25 0,-9 -4,-21 -24,-23l-30 -2zm107 104c15,1 29,-7 30,-24 0,-1 0,-10 -1,-10 -1,0 -4,16 -22,14 -10,0 -23,-10 -22,-31 2,-14 10,-30 26,-29 14,2 7,11 12,12 7,0 11,-3 12,-9 1,-12 -13,-18 -23,-18 -27,-3 -43,22 -45,46 -2,23 8,47 33,49zm117 8c3,1 6,-31 6,-36 2,-24 0,-56 -4,-56l-15 -2c-1,0 -4,0 -4,1 0,1 8,18 7,29 0,4 -4,3 -10,2 -15,-1 -15,2 -19,2 -1,0 -2,-3 -2,-6 1,-11 10,-27 10,-28 1,-2 -2,-2 -3,-2l-15 -1c-5,0 -12,47 -12,55 -1,5 -4,37 0,37l16 1c1,0 3,1 4,0 0,-1 -1,-2 -1,-2 -2,-8 -3,-17 -2,-24 1,-13 13,-18 25,-17 7,1 10,4 9,11 -1,11 -5,21 -10,31 0,1 0,1 0,2 0,2 3,2 4,2l16 1zm-469 -610c24,10 43,15 64,8 137,-50 156,-29 191,-39l-46 -21 12 -6 33 -24 -12 -6c-3,-2 -1,-7 13,-15l20 -27 43 -23 -11 -11 46 -15c12,-5 26,-10 41,-16 27,-9 59,-17 85,-25 -75,-10 -175,19 -232,56 37,-47 99,-98 75,-187 -56,64 -73,117 -169,168 -34,19 -58,55 -80,91l-73 92zm122 -106l8 -1c8,-1 14,-1 17,-1 3,0 5,1 7,1 -11,17 -21,37 -49,41 -58,10 -23,-10 1,-24 22,-12 14,-8 16,-16zm68 -34l1 0c2,-2 -3,2 -11,5 -7,4 -17,9 -23,11 -6,3 -9,5 -11,6 -2,1 -3,2 -5,3 -1,1 -3,1 -5,1 -2,0 -6,-1 -10,-2 1,-2 2,-3 3,-5l21 -18c93,-58 108,-108 158,-170 17,82 -75,143 -118,169zm-110 9c1,-4 6,-12 11,-22 5,-9 10,-20 15,-31 4,-11 8,-23 12,-34 4,-11 8,-21 9,-27 2,-6 2,-9 2,-8 1,0 2,3 4,7 1,4 2,9 3,14 1,5 2,10 2,15 0,5 0,9 0,14 0,4 0,8 0,9 0,2 0,2 -1,2 -1,0 -3,-1 -5,-2 -2,-2 -4,-3 -5,-1 -2,2 -2,8 -5,14 -2,7 -7,14 -12,21 -6,7 -13,15 -17,20 -5,4 -7,6 -8,8 -1,1 -1,2 -2,3 -2,1 -4,1 -3,-2zm274 -29c96,-13 167,-15 266,25 30,12 63,34 91,39l-10 -29c12,-12 -7,-5 19,-10 -111,-87 -272,-53 -366,-25zm-70 82l45 13c-34,8 -41,-2 -67,9 63,16 92,21 141,59 4,-3 8,-19 12,-18l34 7 34 -30c5,-4 47,26 50,25l7 -23 10 17c6,0 13,-8 28,-10 9,-1 19,0 32,3 37,9 16,6 37,21 65,-38 54,23 89,23 -5,-25 -44,-67 -74,-90 -45,-35 -121,-59 -176,-46 -34,4 -48,2 -91,5 -14,1 -51,6 -61,11l-8 7c-12,9 -15,6 -33,13l-9 4zm455 113c37,60 66,101 35,205 -30,104 -201,212 -322,177 -122,-36 -177,-123 -186,-227 1,9 3,17 5,25l1 0c0,1 0,1 0,2l0 0c1,5 3,9 5,14l0 0c16,39 43,72 77,96 94,69 198,71 249,67 10,-1 18,-2 23,-3 30,-5 18,-34 18,-34l-13 -6c-65,-1 -130,-22 -183,-59 19,-11 34,-28 42,-48 2,56 52,90 104,95l0 0c31,2 62,-4 85,-21l0 0c25,-16 42,-42 45,-77l0 0c6,-64 -42,-94 -83,-118 -22,-14 -41,-25 -40,-37 0,0 2,-1 4,-2l0 0c5,-2 12,-3 17,-2l0 0c21,2 28,14 33,23 6,10 10,17 21,18 11,1 25,-10 36,-23 11,-11 20,-26 21,-33 0,-8 -8,-25 -27,-40l-2 -2c1,0 2,-1 3,-1l10 2c5,3 9,6 15,7l7 2zm-361 63c9,-3 17,-6 24,-10l0 0c-2,-6 -9,-9 -15,-8 -6,0 -11,2 -16,6l0 0c-5,5 -9,11 -11,17 5,-1 11,-3 18,-5zm456 308c22,-15 42,-66 49,-87 17,-51 -7,-138 -28,-181 -8,-17 -35,-55 -53,-69 25,121 21,47 22,184 0,2 1,7 1,9 1,9 2,7 3,11 1,2 2,3 2,4l11 35c3,32 -1,61 -7,94z"/>
  </g>
 </g>
</svg>
