<?xml version="1.0" encoding="UTF-8"?>
<!DOCTYPE svg PUBLIC "-//W3C//DTD SVG 1.1//EN" "http://www.w3.org/Graphics/SVG/1.1/DTD/svg11.dtd">
<!-- Creator: CorelDRAW X7 -->
<svg xmlns="http://www.w3.org/2000/svg" xml:space="preserve" width="10in" height="10in" version="1.1" style="shape-rendering:geometricPrecision; text-rendering:geometricPrecision; image-rendering:optimizeQuality; fill-rule:evenodd; clip-rule:evenodd"
viewBox="0 0 10000 10000"
 xmlns:xlink="http://www.w3.org/1999/xlink">
 <defs>
  <style type="text/css">
   <![CDATA[
    .fil14 {fill:#110B07}
    .fil43 {fill:#D59064}
    .fil30 {fill:#E87D4A}
    .fil31 {fill:#E97F4C}
    .fil34 {fill:#E9804B}
    .fil28 {fill:#EA824B}
    .fil29 {fill:#EA824C}
    .fil35 {fill:#EA824D}
    .fil36 {fill:#EB834B}
    .fil33 {fill:#EB834D}
    .fil27 {fill:#F0954C}
    .fil26 {fill:#F2994C}
    .fil37 {fill:#F38E5F}
    .fil23 {fill:#F6A54D}
    .fil38 {fill:#F77C4E}
    .fil24 {fill:#F7A74B}
    .fil6 {fill:#F8A169}
    .fil19 {fill:#F8AA4C}
    .fil18 {fill:#F8AB4D}
    .fil17 {fill:#F8AC4D}
    .fil13 {fill:#F98A4A}
    .fil3 {fill:#F9A169}
    .fil20 {fill:#F9AE4B}
    .fil25 {fill:#FA864A}
    .fil22 {fill:#FA874B}
    .fil11 {fill:#FD9251}
    .fil9 {fill:#FE934C}
    .fil5 {fill:#FEA36A}
    .fil21 {fill:#FEB789}
    .fil32 {fill:#FEBA90}
    .fil16 {fill:#FEBB91}
    .fil10 {fill:#FF934D}
    .fil45 {fill:#E1996C;fill-opacity:0.835294}
    .fil44 {fill:#E79D70;fill-opacity:0.870588}
    .fil41 {fill:#E3996B;fill-opacity:0.882353}
    .fil42 {fill:#DC9364;fill-opacity:0.933333}
    .fil39 {fill:#D08E64;fill-opacity:0.980392}
    .fil4 {fill:#E5DFE4;fill-opacity:0.988235}
    .fil7 {fill:#E6DFE3;fill-opacity:0.988235}
    .fil12 {fill:#E6E0E5;fill-opacity:0.988235}
    .fil40 {fill:#E89D6D;fill-opacity:0.992157}
    .fil15 {fill:#FEA46A;fill-opacity:0.992157}
    .fil1 {fill:#110A06;fill-opacity:0.996078}
    .fil0 {fill:#120B07;fill-opacity:0.996078}
    .fil46 {fill:#CB8960;fill-opacity:0.996078}
    .fil8 {fill:#FDA36A;fill-opacity:0.996078}
    .fil2 {fill:#FEA369;fill-opacity:0.996078}
   ]]>
  </style>
 </defs>
 <g id="Layer_x0020_1">
  <metadata id="CorelCorpID_0Corel-Layer"/>
  <g id="thumbnail-background.svg">
   <g>
    <path class="fil0" d="M6582 2464c17,0 35,0 52,0 0,3 0,7 0,10 -383,710 -777,1415 -1183,2113 -189,241 -293,516 -313,824 9,226 86,425 231,596 179,200 385,362 619,487 12,18 29,28 52,31 4,14 15,21 30,20 11,13 24,19 41,21 5,15 15,22 31,21 307,158 611,318 912,482 145,67 292,130 440,191 -3,12 -12,19 -26,21 -153,-47 -302,-108 -445,-181 -341,-180 -683,-359 -1024,-539 -189,-115 -367,-246 -533,-394 -113,-114 -211,-240 -292,-378 -86,-212 -100,-430 -41,-652 95,-269 225,-517 389,-746 369,-629 723,-1268 1060,-1917 0,-3 0,-7 0,-10z"/>
   </g>
   <g>
    <path class="fil1" d="M7135 2464c18,0 35,0 52,0 0,3 0,7 0,10 -104,235 -222,463 -354,684 -361,575 -709,1158 -1044,1751 -118,280 -84,539 102,777 171,182 367,327 589,435 19,21 43,35 72,41 24,19 51,33 82,42 4,14 15,21 30,20 270,152 547,290 830,415 -3,12 -12,18 -26,20 -441,-188 -866,-407 -1275,-657 -133,-94 -255,-203 -363,-327 -139,-181 -183,-385 -134,-611 27,-93 61,-183 103,-269 344,-589 695,-1173 1055,-1751 105,-185 199,-375 281,-570 0,-3 0,-7 0,-10z"/>
   </g>
   <g>
    <path class="fil2" d="M6582 2474c-337,649 -691,1288 -1060,1917 -164,229 -294,477 -389,746 -59,222 -45,440 41,652 81,138 179,264 292,378 166,148 344,279 533,394 341,180 683,359 1024,539 143,73 292,134 445,181 14,-2 23,-9 26,-21 33,14 67,20 102,21 0,41 0,83 0,124 -28,164 -124,257 -286,280 -65,0 -130,0 -195,0 -1174,-14 -2349,-14 -3523,0 -287,0 -574,0 -861,0 -174,-2 -283,-88 -327,-259 0,-1568 0,-3136 0,-4703 27,-125 102,-206 225,-244 1318,-5 2636,-7 3953,-5z"/>
   </g>
   <g>
    <path class="fil3" d="M6634 2474c17,0 34,0 51,0 -394,776 -819,1532 -1275,2269 -123,208 -193,432 -210,673 1,237 81,440 240,611 64,64 127,128 190,192 118,94 238,186 358,275 -234,-125 -440,-287 -619,-487 -145,-171 -222,-370 -231,-596 20,-308 124,-583 313,-824 406,-698 800,-1403 1183,-2113z"/>
   </g>
   <g>
    <path class="fil4" d="M6685 2474c13,0 27,0 41,0 -17,54 -39,106 -67,155 -426,774 -863,1540 -1311,2300 -207,487 -114,903 282,1249 166,140 344,264 532,373 394,209 790,413 1189,611 80,34 162,64 245,88 0,10 0,21 0,31 -35,-1 -69,-7 -102,-21 -148,-61 -295,-124 -440,-191 -301,-164 -605,-324 -912,-482 -5,-15 -15,-22 -31,-21 -17,-2 -30,-8 -41,-21 -5,-14 -15,-21 -30,-20 -12,-18 -29,-29 -52,-31 -120,-89 -240,-181 -358,-275 -63,-64 -126,-128 -190,-192 -159,-171 -239,-374 -240,-611 17,-241 87,-465 210,-673 456,-737 881,-1493 1275,-2269z"/>
   </g>
   <g>
    <path class="fil5" d="M6726 2474c136,0 273,0 409,0 -82,195 -176,385 -281,570 -360,578 -711,1162 -1055,1751 -42,86 -76,176 -103,269 -49,226 -5,430 134,611 108,124 230,233 363,327 409,250 834,469 1275,657 14,-2 23,-8 26,-20 34,9 68,16 102,20 0,197 0,394 0,591 -83,-24 -165,-54 -245,-88 -399,-198 -795,-402 -1189,-611 -188,-109 -366,-233 -532,-373 -396,-346 -489,-762 -282,-1249 448,-760 885,-1526 1311,-2300 28,-49 50,-101 67,-155z"/>
   </g>
   <g>
    <path class="fil6" d="M7187 2474c17,0 34,0 51,0 -88,219 -192,430 -313,632 -343,556 -681,1115 -1013,1678 -226,414 -159,772 199,1073 118,95 241,183 369,264 -222,-108 -418,-253 -589,-435 -186,-238 -220,-497 -102,-777 335,-593 683,-1176 1044,-1751 132,-221 250,-449 354,-684z"/>
   </g>
   <g>
    <path class="fil7" d="M7238 2474c14,0 27,0 41,0 -92,231 -203,452 -333,663 -339,553 -673,1109 -1004,1668 -200,370 -151,699 149,989 138,117 284,220 440,311 268,144 538,286 809,425 84,39 169,71 256,98 0,11 0,21 0,31 -34,-4 -68,-11 -102,-20 -283,-125 -560,-263 -830,-415 -5,-14 -15,-21 -30,-20 -31,-9 -58,-23 -82,-42 -19,-22 -43,-35 -72,-41 -128,-81 -251,-169 -369,-264 -358,-301 -425,-659 -199,-1073 332,-563 670,-1122 1013,-1678 121,-202 225,-413 313,-632z"/>
   </g>
   <g>
    <path class="fil8" d="M7279 2474c170,6 276,93 317,259 0,24 0,48 0,73 -198,411 -404,818 -619,1222 -142,259 -289,514 -441,767 -177,292 -137,549 118,771 52,40 103,80 154,120 -141,-71 -262,-168 -364,-290 -71,-104 -95,-218 -72,-342 23,-83 53,-163 93,-239 373,-623 714,-1266 1024,-1927 7,-31 7,-62 0,-93 -324,689 -679,1359 -1065,2010 -61,102 -93,213 -98,332 0,49 5,97 16,145 53,119 130,221 230,305 65,45 130,90 195,135 160,81 317,167 471,259 76,38 154,71 235,98 13,-2 20,-9 21,-20 34,9 68,15 102,20 0,183 0,366 0,549 -87,-27 -172,-59 -256,-98 -271,-139 -541,-281 -809,-425 -156,-91 -302,-194 -440,-311 -300,-290 -349,-619 -149,-989 331,-559 665,-1115 1004,-1668 130,-211 241,-432 333,-663z"/>
   </g>
   <g>
    <path class="fil9" d="M3571 2743c60,-3 118,5 174,26 11,15 13,30 5,47 -74,-44 -154,-63 -240,-57 22,-2 43,-7 61,-16z"/>
   </g>
   <g>
    <path class="fil10" d="M2977 2888c-10,0 -20,0 -31,0 -67,-36 -139,-46 -215,-31 -20,41 -29,41 -25,0 -19,13 -38,13 -57,0 37,-40 81,-68 134,-83 30,7 61,14 92,21 39,-19 73,-13 102,16 -31,-13 -55,-5 -71,26 22,20 46,37 71,51z"/>
   </g>
   <g>
    <path class="fil11" d="M3766 2888c-42,-14 -83,-13 -123,6 -28,32 -49,69 -62,108 -3,-1 -6,-3 -10,-5 42,-74 22,-114 -61,-119 -27,-12 -54,-24 -82,-36 97,-58 196,-61 297,-11 20,16 34,34 41,57z"/>
   </g>
   <g>
    <path class="fil12" d="M7596 2806c0,27 0,55 0,82 -189,381 -382,761 -578,1140 -145,266 -296,528 -451,787 -58,105 -94,218 -108,337 6,84 32,162 77,233 46,57 96,110 149,161 285,199 589,367 911,502 0,11 0,21 0,31 -34,-5 -68,-11 -102,-20 -105,-59 -210,-114 -318,-166 -25,-25 -56,-43 -92,-52 -37,-12 -71,-29 -102,-52 -5,-14 -15,-21 -31,-21 -24,-5 -44,-15 -61,-31 -5,-14 -15,-21 -31,-20 -20,-7 -37,-17 -51,-31 -51,-40 -102,-80 -154,-120 -255,-222 -295,-479 -118,-771 152,-253 299,-508 441,-767 215,-404 421,-811 619,-1222z"/>
   </g>
   <g>
    <path class="fil13" d="M3233 2888c0,-3 0,-6 0,-10 26,-27 49,-57 72,-88 -6,-30 1,-60 20,-88 13,16 13,31 0,47 15,3 29,-1 41,-11 37,-33 69,-69 98,-109 7,21 7,42 0,63 -4,-11 -7,-21 -11,-31 -39,63 -88,117 -148,160 15,17 29,14 41,-10 -3,-4 -7,-7 -10,-11 31,-15 60,-34 87,-57 4,5 9,9 15,11 37,-28 78,-36 123,-26 -78,13 -136,54 -174,124 7,4 14,7 20,11 -50,2 -98,14 -143,36 -11,-2 -21,-6 -31,-11z"/>
   </g>
   <g>
    <path class="fil14" d="M6808 5686c14,14 31,24 51,31 5,14 15,21 31,20 17,16 37,26 61,31 5,15 15,22 31,21 31,23 65,40 102,52 26,25 57,42 92,52 108,52 213,107 318,166 -1,11 -8,18 -21,20 -81,-27 -159,-60 -235,-98 -154,-92 -311,-178 -471,-259 -65,-45 -130,-90 -195,-135 -100,-84 -177,-186 -230,-305 -11,-48 -16,-96 -16,-145 5,-119 37,-230 98,-332 386,-651 741,-1321 1065,-2010 7,31 7,62 0,93 -310,661 -651,1304 -1024,1927 -40,76 -70,156 -93,239 -23,124 1,238 72,342 102,122 223,219 364,290z"/>
   </g>
   <g>
    <path class="fil15" d="M7596 2888c0,1054 0,2107 0,3160 -322,-135 -626,-303 -911,-502 -53,-51 -103,-104 -149,-161 -45,-71 -71,-149 -77,-233 14,-119 50,-232 108,-337 155,-259 306,-521 451,-787 196,-379 389,-759 578,-1140z"/>
   </g>
   <g>
    <path class="fil16" d="M3233 2878c0,4 0,7 0,10 -1,18 0,35 5,52 22,-13 44,-13 67,0 16,-51 50,-71 102,-62 -9,91 5,100 41,26 18,-16 38,-25 62,-26 83,5 103,45 61,119 4,2 7,4 10,5 13,-39 34,-76 62,-108 40,-19 81,-20 123,-6 6,7 13,14 20,21 -6,10 -10,20 -10,31 -2,16 -9,30 -20,42 43,49 40,94 -11,134 -6,14 -17,25 -30,31 -12,20 -25,37 -41,52 -45,-6 -89,-18 -133,-36 30,3 61,3 92,0 -35,-11 -67,-27 -98,-47 2,-17 13,-31 31,-41 7,-14 7,-28 0,-42 -33,41 -62,41 -87,0 20,-17 44,-29 72,-36 36,-56 20,-89 -46,-98 -63,22 -88,67 -77,134 8,36 18,70 31,104 -19,13 -36,29 -52,47 -34,12 -59,4 -76,-26 -5,15 -14,27 -26,36 -30,2 -57,4 -82,5 -24,0 -48,0 -72,0 7,-49 -3,-58 -30,-26 -38,23 -74,21 -108,-5 -23,9 -45,19 -67,31 -15,-9 -23,-23 -25,-41 -5,19 -17,31 -36,36 -43,10 -84,4 -123,-15 -24,30 -53,36 -87,20 -21,-97 -35,-101 -41,-10 -22,18 -47,25 -77,21 -11,-90 -12,-180 -5,-270 38,-55 75,-55 113,0 17,-38 46,-50 87,-36 6,22 13,45 20,67 38,-22 77,-26 118,-10 25,-20 44,-44 56,-73 11,0 21,0 31,0 13,-7 26,-11 41,-10 2,14 -1,26 -10,36 23,7 35,23 36,47 27,-26 59,-37 97,-31 -8,-71 22,-99 92,-83 0,10 0,21 0,31z"/>
   </g>
   <g>
    <path class="fil17" d="M3479 3033c-17,0 -34,0 -51,0 -11,-67 14,-112 77,-134 66,9 82,42 46,98 -28,7 -52,19 -72,36z"/>
   </g>
   <g>
    <path class="fil18" d="M3756 3054c-21,-1 -39,6 -52,21 2,-11 0,-21 -5,-31 -39,-16 -65,-43 -77,-83 14,-54 49,-73 103,-57 45,16 50,38 15,67 -21,-32 -47,-37 -77,-15 30,24 59,50 87,77 5,7 7,14 6,21z"/>
   </g>
   <g>
    <path class="fil19" d="M2977 3033c-10,0 -20,0 -31,0 3,-13 0,-23 -10,-31 -7,-9 -17,-12 -30,-10 -4,-31 10,-45 40,-41 -2,-27 10,-45 36,-52 5,17 7,34 5,52 11,0 21,0 31,0 0,10 0,20 0,31 -35,-2 -48,16 -41,51z"/>
   </g>
   <g>
    <path class="fil20" d="M3387 3002c-14,0 -27,0 -41,0 -10,-28 -13,-60 -10,-93 17,0 34,0 51,0 0,31 0,62 0,93z"/>
   </g>
   <g>
    <path class="fil21" d="M3479 2940c17,0 34,0 51,0 -5,34 -26,48 -61,42 -1,-15 3,-29 10,-42z"/>
   </g>
   <g>
    <path class="fil22" d="M3715 3147c13,-6 24,-17 30,-31 51,-40 54,-85 11,-134 11,-12 18,-26 20,-42 6,-1 12,-4 15,-10 50,100 28,179 -66,238 -8,-5 -12,-11 -10,-21z"/>
   </g>
   <g>
    <path class="fil23" d="M3049 3033c-10,0 -21,0 -31,0 13,-63 51,-85 113,-67 14,17 12,33 -5,47 -34,-29 -60,-22 -77,20z"/>
   </g>
   <g>
    <path class="fil24" d="M3305 3013c-3,16 -14,23 -31,20 -21,-54 -41,-54 -61,0 -14,0 -28,0 -41,0 -8,-54 -12,-110 -10,-165 13,0 27,0 41,0 0,34 0,69 0,103 27,-8 54,-9 81,-5 16,12 23,27 21,47z"/>
   </g>
   <g>
    <path class="fil25" d="M3838 2961c22,14 38,35 46,62 6,42 6,83 0,124 -5,13 -11,23 -21,32 -9,-73 -18,-146 -25,-218z"/>
   </g>
   <g>
    <path class="fil26" d="M2752 3075c-30,-3 -57,0 -82,10 -13,-30 -34,-54 -61,-72 -10,13 -24,20 -41,20 -2,-31 0,-62 5,-93 23,-15 43,-11 61,11 24,34 48,69 72,103 6,-39 1,-77 -16,-114 16,-13 31,-13 47,0 7,45 12,90 15,135z"/>
   </g>
   <g>
    <path class="fil27" d="M2895 3075c-10,0 -20,0 -30,0 -14,0 -28,0 -41,0 -11,0 -21,0 -31,0 14,-21 35,-32 61,-31 -11,-52 -33,-55 -66,-11 -22,-40 -9,-61 41,-62 55,11 77,46 66,104z"/>
   </g>
   <g>
    <path class="fil28" d="M3704 3075c13,-15 31,-22 52,-21 -1,22 -4,42 -11,62 -41,16 -82,14 -123,-5 -11,-25 -13,-51 -5,-78 11,17 23,33 36,47 20,8 37,6 51,-5z"/>
   </g>
   <g>
    <path class="fil29" d="M2609 3013c-1,55 3,111 10,166 -20,2 -36,-5 -46,-21 -5,-41 -7,-83 -5,-125 17,0 31,-7 41,-20z"/>
   </g>
   <g>
    <path class="fil30" d="M2752 3075c2,31 0,62 -5,93 -17,14 -34,14 -51,0 -6,-29 -15,-56 -26,-83 25,-10 52,-13 82,-10z"/>
   </g>
   <g>
    <path class="fil31" d="M2793 3075c10,0 20,0 31,0 -21,46 -9,63 35,52 5,-17 7,-34 6,-52 10,0 20,0 30,0 10,30 13,61 11,93 -39,3 -76,-1 -113,-10 -27,-29 -27,-56 0,-83z"/>
   </g>
   <g>
    <path class="fil32" d="M2824 3075c13,0 27,0 41,0 1,18 -1,35 -6,52 -44,11 -56,-6 -35,-52z"/>
   </g>
   <g>
    <path class="fil33" d="M2936 3002c10,8 13,18 10,31 11,0 21,0 31,0 6,35 13,70 21,104 -7,22 -20,31 -41,26 -14,-52 -21,-106 -21,-161z"/>
   </g>
   <g>
    <path class="fil34" d="M3018 3033c10,0 21,0 31,0 -4,75 25,95 87,63 9,42 -8,63 -51,62 -21,1 -38,-6 -51,-21 -14,-33 -19,-67 -16,-104z"/>
   </g>
   <g>
    <path class="fil35" d="M3172 3033c13,0 27,0 41,0 -2,49 2,98 10,146 -17,0 -34,0 -51,0 0,-49 0,-97 0,-146z"/>
   </g>
   <g>
    <path class="fil29" d="M3305 3013c12,46 13,95 5,145 -14,9 -29,12 -46,10 6,-44 9,-89 10,-135 17,3 28,-4 31,-20z"/>
   </g>
   <g>
    <path class="fil36" d="M3346 3002c14,0 27,0 41,0 12,51 22,102 31,156 -21,0 -41,0 -62,0 -7,-52 -10,-104 -10,-156z"/>
   </g>
   <g>
    <path class="fil37" d="M3428 3033c17,0 34,0 51,0 25,41 54,41 87,0 7,14 7,28 0,42 -18,10 -29,24 -31,41 31,20 63,36 98,47 -31,3 -62,3 -92,0 44,18 88,30 133,36 -85,25 -157,4 -215,-62 -13,-34 -23,-68 -31,-104z"/>
   </g>
   <g>
    <path class="fil38" d="M3151 3199c24,0 48,0 72,0 48,20 99,32 154,37 80,14 161,20 240,15 69,8 127,-13 174,-62 -62,133 -167,192 -317,176 -167,9 -308,-44 -425,-161 34,-5 68,-6 102,-5z"/>
   </g>
   <g>
    <path class="fil39" d="M6859 5717c16,-1 26,6 31,20 -16,1 -26,-6 -31,-20z"/>
   </g>
   <g>
    <path class="fil40" d="M6951 5768c16,0 26,7 31,21 -16,1 -26,-6 -31,-21z"/>
   </g>
   <g>
    <path class="fil41" d="M7084 5841c36,9 67,27 92,52 -35,-10 -66,-27 -92,-52z"/>
   </g>
   <g>
    <path class="fil42" d="M6480 6121c29,6 53,19 72,41 -29,-6 -53,-20 -72,-41z"/>
   </g>
   <g>
    <path class="fil43" d="M6634 6204c15,-1 25,6 30,20 -15,1 -26,-6 -30,-20z"/>
   </g>
   <g>
    <path class="fil44" d="M5988 6494c23,2 40,13 52,31 -23,-3 -40,-13 -52,-31z"/>
   </g>
   <g>
    <path class="fil45" d="M6040 6525c15,-1 25,6 30,20 -15,1 -26,-6 -30,-20z"/>
   </g>
   <g>
    <path class="fil46" d="M6111 6566c16,-1 26,6 31,21 -16,1 -26,-6 -31,-21z"/>
   </g>
  </g>
 </g>
</svg>
