<?xml version="1.0" encoding="UTF-8"?>
<!DOCTYPE svg PUBLIC "-//W3C//DTD SVG 1.1//EN" "http://www.w3.org/Graphics/SVG/1.1/DTD/svg11.dtd">
<svg xmlns="http://www.w3.org/2000/svg" version="1.1" width="507px" height="504px" style="shape-rendering:geometricPrecision; text-rendering:geometricPrecision; image-rendering:optimizeQuality; fill-rule:evenodd; clip-rule:evenodd" xmlns:xlink="http://www.w3.org/1999/xlink">
<g><path style="opacity:0.998" fill="#120b07" d="M 407.5,-0.5 C 409.167,-0.5 410.833,-0.5 412.5,-0.5C 412.5,-0.166667 412.5,0.166667 412.5,0.5C 375.163,69.0422 336.663,137.042 297,204.5C 278.581,227.746 268.414,254.246 266.5,284C 267.328,305.824 274.828,324.991 289,341.5C 306.488,360.846 326.654,376.512 349.5,388.5C 350.659,390.25 352.326,391.25 354.5,391.5C 354.973,392.906 355.973,393.573 357.5,393.5C 358.514,394.674 359.847,395.34 361.5,395.5C 361.973,396.906 362.973,397.573 364.5,397.5C 394.448,412.739 424.115,428.239 453.5,444C 467.739,450.466 482.073,456.632 496.5,462.5C 496.209,463.649 495.376,464.316 494,464.5C 479.004,459.919 464.504,454.086 450.5,447C 417.198,429.682 383.865,412.348 350.5,395C 332.045,383.879 314.711,371.213 298.5,357C 287.43,346.011 277.93,333.844 270,320.5C 261.566,300.011 260.232,279.011 266,257.5C 275.276,231.599 287.942,207.599 304,185.5C 340.019,124.807 374.519,63.1407 407.5,0.5C 407.5,0.166667 407.5,-0.166667 407.5,-0.5 Z"/></g>
<g><path style="opacity:0.998" fill="#110a06" d="M 461.5,-0.5 C 463.167,-0.5 464.833,-0.5 466.5,-0.5C 466.5,-0.166667 466.5,0.166667 466.5,0.5C 456.334,23.1636 444.834,45.1636 432,66.5C 396.743,122.003 362.743,178.336 330,235.5C 318.535,262.611 321.868,287.611 340,310.5C 356.654,328.064 375.821,342.064 397.5,352.5C 399.336,354.588 401.669,355.921 404.5,356.5C 406.849,358.341 409.515,359.674 412.5,360.5C 412.973,361.906 413.973,362.573 415.5,362.5C 441.853,377.177 468.853,390.51 496.5,402.5C 496.209,403.649 495.376,404.316 494,404.5C 450.889,386.362 409.389,365.195 369.5,341C 356.452,331.957 344.619,321.457 334,309.5C 320.493,291.977 316.16,272.31 321,250.5C 323.545,241.531 326.879,232.864 331,224.5C 364.58,167.667 398.913,111.333 434,55.5C 444.25,37.6666 453.417,19.3333 461.5,0.5C 461.5,0.166667 461.5,-0.166667 461.5,-0.5 Z"/></g>
<g><path style="opacity:0.998" fill="#fea369" d="M 407.5,0.5 C 374.519,63.1407 340.019,124.807 304,185.5C 287.942,207.599 275.276,231.599 266,257.5C 260.232,279.011 261.566,300.011 270,320.5C 277.93,333.844 287.43,346.011 298.5,357C 314.711,371.213 332.045,383.879 350.5,395C 383.865,412.348 417.198,429.682 450.5,447C 464.504,454.086 479.004,459.919 494,464.5C 495.376,464.316 496.209,463.649 496.5,462.5C 499.698,463.787 503.031,464.453 506.5,464.5C 506.5,468.5 506.5,472.5 506.5,476.5C 503.691,492.31 494.358,501.31 478.5,503.5C 472.167,503.5 465.833,503.5 459.5,503.5C 344.833,502.167 230.167,502.167 115.5,503.5C 87.5,503.5 59.5,503.5 31.5,503.5C 14.4686,503.317 3.80189,494.984 -0.5,478.5C -0.5,327.167 -0.5,175.833 -0.5,24.5C 2.14406,12.4449 9.47739,4.61156 21.5,1C 150.166,0.500001 278.833,0.333334 407.5,0.5 Z"/></g>
<g><path style="opacity:1" fill="#f9a169" d="M 412.5,0.5 C 414.167,0.5 415.833,0.5 417.5,0.5C 379.06,75.3955 337.56,148.395 293,219.5C 281.028,239.581 274.194,261.248 272.5,284.5C 272.579,307.315 280.412,326.981 296,343.5C 302.167,349.667 308.333,355.833 314.5,362C 326.067,371.081 337.734,379.914 349.5,388.5C 326.654,376.512 306.488,360.846 289,341.5C 274.828,324.991 267.328,305.824 266.5,284C 268.414,254.246 278.581,227.746 297,204.5C 336.663,137.042 375.163,69.0422 412.5,0.5 Z"/></g>
<g><path style="opacity:0.988" fill="#e5dfe4" d="M 417.5,0.5 C 418.833,0.5 420.167,0.5 421.5,0.5C 419.896,5.71166 417.729,10.7117 415,15.5C 373.344,90.1534 330.677,164.153 287,237.5C 266.724,284.463 275.891,324.63 314.5,358C 330.731,371.56 348.065,383.56 366.5,394C 404.886,414.193 443.553,433.86 482.5,453C 490.346,456.337 498.346,459.17 506.5,461.5C 506.5,462.5 506.5,463.5 506.5,464.5C 503.031,464.453 499.698,463.787 496.5,462.5C 482.073,456.632 467.739,450.466 453.5,444C 424.115,428.239 394.448,412.739 364.5,397.5C 364.027,396.094 363.027,395.427 361.5,395.5C 359.847,395.34 358.514,394.674 357.5,393.5C 357.027,392.094 356.027,391.427 354.5,391.5C 353.341,389.75 351.674,388.75 349.5,388.5C 337.734,379.914 326.067,371.081 314.5,362C 308.333,355.833 302.167,349.667 296,343.5C 280.412,326.981 272.579,307.315 272.5,284.5C 274.194,261.248 281.028,239.581 293,219.5C 337.56,148.395 379.06,75.3955 417.5,0.5 Z"/></g>
<g><path style="opacity:0.999" fill="#fea36a" d="M 421.5,0.5 C 434.833,0.5 448.167,0.5 461.5,0.5C 453.417,19.3333 444.25,37.6666 434,55.5C 398.913,111.333 364.58,167.667 331,224.5C 326.879,232.864 323.545,241.531 321,250.5C 316.16,272.31 320.493,291.977 334,309.5C 344.619,321.457 356.452,331.957 369.5,341C 409.389,365.195 450.889,386.362 494,404.5C 495.376,404.316 496.209,403.649 496.5,402.5C 499.789,403.374 503.123,404.041 506.5,404.5C 506.5,423.5 506.5,442.5 506.5,461.5C 498.346,459.17 490.346,456.337 482.5,453C 443.553,433.86 404.886,414.193 366.5,394C 348.065,383.56 330.731,371.56 314.5,358C 275.891,324.63 266.724,284.463 287,237.5C 330.677,164.153 373.344,90.1534 415,15.5C 417.729,10.7117 419.896,5.71166 421.5,0.5 Z"/></g>
<g><path style="opacity:1" fill="#f8a169" d="M 466.5,0.5 C 468.167,0.5 469.833,0.5 471.5,0.5C 462.926,21.6478 452.759,41.9812 441,61.5C 407.498,115.166 374.498,169.166 342,223.5C 319.997,263.481 326.497,297.981 361.5,327C 373.04,336.259 385.04,344.759 397.5,352.5C 375.821,342.064 356.654,328.064 340,310.5C 321.868,287.611 318.535,262.611 330,235.5C 362.743,178.336 396.743,122.003 432,66.5C 444.834,45.1636 456.334,23.1636 466.5,0.5 Z"/></g>
<g><path style="opacity:0.989" fill="#e6dfe3" d="M 471.5,0.5 C 472.833,0.5 474.167,0.5 475.5,0.5C 466.513,22.8088 455.679,44.1421 443,64.5C 409.936,117.903 377.27,171.57 345,225.5C 325.41,261.169 330.243,293.002 359.5,321C 372.96,332.232 387.293,342.232 402.5,351C 428.676,364.922 455.01,378.588 481.5,392C 489.645,395.742 497.978,398.909 506.5,401.5C 506.5,402.5 506.5,403.5 506.5,404.5C 503.123,404.041 499.789,403.374 496.5,402.5C 468.853,390.51 441.853,377.177 415.5,362.5C 415.027,361.094 414.027,360.427 412.5,360.5C 409.515,359.674 406.849,358.341 404.5,356.5C 402.664,354.412 400.331,353.079 397.5,352.5C 385.04,344.759 373.04,336.259 361.5,327C 326.497,297.981 319.997,263.481 342,223.5C 374.498,169.166 407.498,115.166 441,61.5C 452.759,41.9812 462.926,21.6478 471.5,0.5 Z"/></g>
<g><path style="opacity:0.998" fill="#fda36a" d="M 475.5,0.5 C 492.096,1.09794 502.429,9.43128 506.5,25.5C 506.5,27.8333 506.5,30.1667 506.5,32.5C 487.16,72.179 466.993,111.512 446,150.5C 432.172,175.494 417.838,200.161 403,224.5C 385.718,252.729 389.551,277.562 414.5,299C 419.569,302.854 424.569,306.687 429.5,310.5C 415.741,303.692 403.908,294.359 394,282.5C 387.09,272.52 384.757,261.52 387,249.5C 389.181,241.478 392.181,233.812 396,226.5C 432.445,166.284 465.778,104.284 496,40.5C 496.667,37.5 496.667,34.5 496,31.5C 464.431,97.9804 429.764,162.647 392,225.5C 386.09,235.392 382.923,246.059 382.5,257.5C 382.469,262.235 382.969,266.901 384,271.5C 389.195,283.042 396.695,292.875 406.5,301C 412.833,305.333 419.167,309.667 425.5,314C 441.153,321.825 456.486,330.158 471.5,339C 478.913,342.704 486.58,345.871 494.5,348.5C 495.713,348.253 496.38,347.586 496.5,346.5C 499.789,347.374 503.123,348.041 506.5,348.5C 506.5,366.167 506.5,383.833 506.5,401.5C 497.978,398.909 489.645,395.742 481.5,392C 455.01,378.588 428.676,364.922 402.5,351C 387.293,342.232 372.96,332.232 359.5,321C 330.243,293.002 325.41,261.169 345,225.5C 377.27,171.57 409.936,117.903 443,64.5C 455.679,44.1421 466.513,22.8088 475.5,0.5 Z"/></g>
<g><path style="opacity:1" fill="#fe934c" d="M 113.5,26.5 C 119.345,26.151 125.012,26.9843 130.5,29C 131.554,30.3876 131.72,31.8876 131,33.5C 123.775,29.246 115.942,27.4126 107.5,28C 109.708,27.8091 111.708,27.3091 113.5,26.5 Z"/></g>
<g><path style="opacity:1" fill="#ff934d" d="M 55.5,40.5 C 54.5,40.5 53.5,40.5 52.5,40.5C 45.9196,37.0157 38.9196,36.0157 31.5,37.5C 29.5088,41.389 28.6755,41.389 29,37.5C 27.1862,38.7596 25.3529,38.7596 23.5,37.5C 27.0488,33.5589 31.3821,30.8922 36.5,29.5C 39.5,30.1667 42.5,30.8333 45.5,31.5C 49.2817,29.6823 52.615,30.1823 55.5,33C 52.4865,31.7276 50.1532,32.5609 48.5,35.5C 50.6866,37.4216 53.0199,39.0883 55.5,40.5 Z"/></g>
<g><path style="opacity:1" fill="#fd9251" d="M 132.5,40.5 C 128.46,39.0768 124.46,39.2434 120.5,41C 117.73,44.1712 115.73,47.6712 114.5,51.5C 114.167,51.3333 113.833,51.1667 113.5,51C 117.576,43.8427 115.576,40.0094 107.5,39.5C 104.898,38.3389 102.231,37.1723 99.5,36C 108.963,30.4364 118.63,30.1031 128.5,35C 130.464,36.451 131.797,38.2843 132.5,40.5 Z"/></g>
<g><path style="opacity:0.987" fill="#e6e0e5" d="M 506.5,32.5 C 506.5,35.1667 506.5,37.8333 506.5,40.5C 487.967,77.2308 469.134,113.897 450,150.5C 435.838,176.161 421.172,201.494 406,226.5C 400.29,236.63 396.79,247.463 395.5,259C 396.076,267.138 398.576,274.638 403,281.5C 407.467,286.968 412.3,292.135 417.5,297C 445.364,316.269 475.031,332.436 506.5,345.5C 506.5,346.5 506.5,347.5 506.5,348.5C 503.123,348.041 499.789,347.374 496.5,346.5C 486.292,340.896 475.959,335.563 465.5,330.5C 462.992,328.076 459.992,326.41 456.5,325.5C 452.849,324.341 449.515,322.674 446.5,320.5C 446.027,319.094 445.027,318.427 443.5,318.5C 441.181,318.008 439.181,317.008 437.5,315.5C 437.027,314.094 436.027,313.427 434.5,313.5C 432.566,312.89 430.899,311.89 429.5,310.5C 424.569,306.687 419.569,302.854 414.5,299C 389.551,277.562 385.718,252.729 403,224.5C 417.838,200.161 432.172,175.494 446,150.5C 466.993,111.512 487.16,72.179 506.5,32.5 Z"/></g>
<g><path style="opacity:1" fill="#f98a4a" d="M 80.5,40.5 C 80.5,40.1667 80.5,39.8333 80.5,39.5C 82.969,36.8562 85.3024,34.0228 87.5,31C 86.9624,28.0636 87.6291,25.2302 89.5,22.5C 90.7472,24.0064 90.7472,25.5064 89.5,27C 90.9078,27.3152 92.2411,26.9819 93.5,26C 97.0364,22.7988 100.203,19.2988 103,15.5C 103.667,17.5 103.667,19.5 103,21.5C 102.667,20.5 102.333,19.5 102,18.5C 98.1826,24.6496 93.3493,29.8163 87.5,34C 88.9904,35.6343 90.3237,35.301 91.5,33C 91.1667,32.6667 90.8333,32.3333 90.5,32C 93.6026,30.5606 96.4359,28.7272 99,26.5C 99.414,26.9574 99.914,27.2907 100.5,27.5C 104.098,24.8654 108.098,24.0321 112.5,25C 104.91,26.2546 99.2429,30.2546 95.5,37C 96.1667,37.3333 96.8333,37.6667 97.5,38C 92.5951,38.2467 87.9284,39.4134 83.5,41.5C 82.4163,41.315 81.4163,40.9817 80.5,40.5 Z"/></g>
<g><path style="opacity:1" fill="#110b07" d="M 429.5,310.5 C 430.899,311.89 432.566,312.89 434.5,313.5C 434.973,314.906 435.973,315.573 437.5,315.5C 439.181,317.008 441.181,318.008 443.5,318.5C 443.973,319.906 444.973,320.573 446.5,320.5C 449.515,322.674 452.849,324.341 456.5,325.5C 459.008,327.924 462.008,329.59 465.5,330.5C 475.959,335.563 486.292,340.896 496.5,346.5C 496.38,347.586 495.713,348.253 494.5,348.5C 486.58,345.871 478.913,342.704 471.5,339C 456.486,330.158 441.153,321.825 425.5,314C 419.167,309.667 412.833,305.333 406.5,301C 396.695,292.875 389.195,283.042 384,271.5C 382.969,266.901 382.469,262.235 382.5,257.5C 382.923,246.059 386.09,235.392 392,225.5C 429.764,162.647 464.431,97.9804 496,31.5C 496.667,34.5 496.667,37.5 496,40.5C 465.778,104.284 432.445,166.284 396,226.5C 392.181,233.812 389.181,241.478 387,249.5C 384.757,261.52 387.09,272.52 394,282.5C 403.908,294.359 415.741,303.692 429.5,310.5 Z"/></g>
<g><path style="opacity:0.992" fill="#fea46a" d="M 506.5,40.5 C 506.5,142.167 506.5,243.833 506.5,345.5C 475.031,332.436 445.364,316.269 417.5,297C 412.3,292.135 407.467,286.968 403,281.5C 398.576,274.638 396.076,267.138 395.5,259C 396.79,247.463 400.29,236.63 406,226.5C 421.172,201.494 435.838,176.161 450,150.5C 469.134,113.897 487.967,77.2308 506.5,40.5 Z"/></g>
<g><path style="opacity:1" fill="#febb91" d="M 80.5,39.5 C 80.5,39.8333 80.5,40.1667 80.5,40.5C 80.3398,42.1992 80.5065,43.8659 81,45.5C 83.1317,44.2203 85.2984,44.2203 87.5,45.5C 89.0847,40.5814 92.4181,38.5814 97.5,39.5C 96.5765,48.3192 97.9098,49.1526 101.5,42C 103.217,40.4412 105.217,39.6079 107.5,39.5C 115.576,40.0094 117.576,43.8427 113.5,51C 113.833,51.1667 114.167,51.3333 114.5,51.5C 115.73,47.6712 117.73,44.1712 120.5,41C 124.46,39.2434 128.46,39.0768 132.5,40.5C 133.091,41.1515 133.757,41.8182 134.5,42.5C 133.873,43.4168 133.539,44.4168 133.5,45.5C 133.297,47.0443 132.63,48.3777 131.5,49.5C 135.735,54.2879 135.401,58.6213 130.5,62.5C 129.833,63.8333 128.833,64.8333 127.5,65.5C 126.407,67.3492 125.074,69.0158 123.5,70.5C 119.142,69.8967 114.809,68.7301 110.5,67C 113.46,67.3201 116.46,67.3201 119.5,67C 116.136,65.9013 112.97,64.4013 110,62.5C 110.193,60.8126 111.193,59.4792 113,58.5C 113.667,57.1667 113.667,55.8333 113,54.5C 109.812,58.4111 106.979,58.4111 104.5,54.5C 106.493,52.8368 108.826,51.6701 111.5,51C 115.008,45.565 113.508,42.3983 107,41.5C 100.927,43.6335 98.427,47.9668 99.5,54.5C 100.247,57.8994 101.247,61.2328 102.5,64.5C 100.704,65.7927 99.0375,67.2927 97.5,69C 94.1658,70.2121 91.6658,69.3788 90,66.5C 89.5348,67.9308 88.7014,69.0975 87.5,70C 84.6005,70.1856 81.9339,70.3522 79.5,70.5C 77.1667,70.5 74.8333,70.5 72.5,70.5C 73.188,65.7581 72.188,64.9247 69.5,68C 65.8271,70.1474 62.3271,69.9807 59,67.5C 56.7735,68.3632 54.6068,69.3632 52.5,70.5C 51.0295,69.6195 50.1962,68.2861 50,66.5C 49.5,68.3333 48.3333,69.5 46.5,70C 42.299,70.9224 38.299,70.4224 34.5,68.5C 32.1492,71.4025 29.3158,72.0691 26,70.5C 23.9106,61.0868 22.5773,60.7535 22,69.5C 19.8646,71.2785 17.3646,71.9452 14.5,71.5C 13.4222,62.8682 13.2556,54.2016 14,45.5C 17.6667,40.1667 21.3333,40.1667 25,45.5C 26.6912,41.7873 29.5245,40.6206 33.5,42C 34.1125,44.1474 34.7792,46.314 35.5,48.5C 39.1461,46.2991 42.9794,45.9658 47,47.5C 49.4295,45.5779 51.2628,43.2446 52.5,40.5C 53.5,40.5 54.5,40.5 55.5,40.5C 56.7079,39.7659 58.0413,39.4326 59.5,39.5C 59.67,40.8221 59.3366,41.9887 58.5,43C 60.7231,43.6517 61.8898,45.1517 62,47.5C 64.6417,44.9712 67.8084,43.9712 71.5,44.5C 70.6704,37.6666 73.6704,34.9999 80.5,36.5C 80.5,37.5 80.5,38.5 80.5,39.5 Z"/></g>
<g><path style="opacity:1" fill="#f8ac4d" d="M 104.5,54.5 C 102.833,54.5 101.167,54.5 99.5,54.5C 98.427,47.9668 100.927,43.6335 107,41.5C 113.508,42.3983 115.008,45.565 111.5,51C 108.826,51.6701 106.493,52.8368 104.5,54.5 Z"/></g>
<g><path style="opacity:1" fill="#f8ab4d" d="M 131.5,56.5 C 129.446,56.3653 127.779,57.032 126.5,58.5C 126.649,57.448 126.483,56.448 126,55.5C 122.151,54.0137 119.651,51.347 118.5,47.5C 119.869,42.312 123.203,40.4787 128.5,42C 132.859,43.5034 133.359,45.67 130,48.5C 127.932,45.3546 125.432,44.8546 122.5,47C 125.427,49.3824 128.261,51.8824 131,54.5C 131.464,55.0944 131.631,55.7611 131.5,56.5 Z"/></g>
<g><path style="opacity:1" fill="#f8aa4c" d="M 55.5,54.5 C 54.5,54.5 53.5,54.5 52.5,54.5C 52.7373,53.209 52.404,52.209 51.5,51.5C 50.791,50.596 49.791,50.2627 48.5,50.5C 48.1667,47.5 49.5,46.1667 52.5,46.5C 52.2771,43.8858 53.4438,42.2191 56,41.5C 56.4935,43.1341 56.6602,44.8008 56.5,46.5C 57.5,46.5 58.5,46.5 59.5,46.5C 59.5,47.5 59.5,48.5 59.5,49.5C 56.0897,49.3838 54.7564,51.0504 55.5,54.5 Z"/></g>
<g><path style="opacity:1" fill="#f9ae4b" d="M 95.5,51.5 C 94.1667,51.5 92.8333,51.5 91.5,51.5C 90.5233,48.7131 90.19,45.7131 90.5,42.5C 92.1667,42.5 93.8333,42.5 95.5,42.5C 95.5,45.5 95.5,48.5 95.5,51.5 Z"/></g>
<g><path style="opacity:1" fill="#feb789" d="M 104.5,45.5 C 106.167,45.5 107.833,45.5 109.5,45.5C 108.969,48.7794 106.969,50.1128 103.5,49.5C 103.433,48.0413 103.766,46.7079 104.5,45.5 Z"/></g>
<g><path style="opacity:1" fill="#fa874b" d="M 127.5,65.5 C 128.833,64.8333 129.833,63.8333 130.5,62.5C 135.401,58.6213 135.735,54.2879 131.5,49.5C 132.63,48.3777 133.297,47.0443 133.5,45.5C 134.117,45.3893 134.617,45.056 135,44.5C 139.836,54.1405 137.669,61.8072 128.5,67.5C 127.702,67.0431 127.369,66.3764 127.5,65.5 Z"/></g>
<g><path style="opacity:1" fill="#f6a54d" d="M 62.5,54.5 C 61.5,54.5 60.5,54.5 59.5,54.5C 60.7961,48.3768 64.4627,46.2102 70.5,48C 71.8486,49.6354 71.6819,51.1354 70,52.5C 66.711,49.7586 64.211,50.4253 62.5,54.5 Z"/></g>
<g><path style="opacity:1" fill="#f7a74b" d="M 87.5,52.5 C 87.1788,54.0481 86.1788,54.7148 84.5,54.5C 82.4565,49.1932 80.4565,49.1932 78.5,54.5C 77.1667,54.5 75.8333,54.5 74.5,54.5C 73.7255,49.2032 73.3921,43.8699 73.5,38.5C 74.8333,38.5 76.1667,38.5 77.5,38.5C 77.5,41.8333 77.5,45.1667 77.5,48.5C 80.1411,47.7369 82.8078,47.5702 85.5,48C 87.0368,49.1096 87.7035,50.6096 87.5,52.5 Z"/></g>
<g><path style="opacity:1" fill="#fa864a" d="M 139.5,47.5 C 141.708,48.8936 143.208,50.8936 144,53.5C 144.667,57.5 144.667,61.5 144,65.5C 143.581,66.6721 142.915,67.6721 142,68.5C 141.076,61.4965 140.243,54.4965 139.5,47.5 Z"/></g>
<g><path style="opacity:1" fill="#f2994c" d="M 33.5,58.5 C 30.6146,58.1936 27.9479,58.5269 25.5,59.5C 24.2109,56.6085 22.2109,54.2752 19.5,52.5C 18.5326,53.8062 17.1993,54.4729 15.5,54.5C 15.3354,51.4816 15.502,48.4816 16,45.5C 18.2672,44.0652 20.2672,44.3985 22,46.5C 24.3333,49.8333 26.6667,53.1667 29,56.5C 29.5899,52.703 29.0899,49.0363 27.5,45.5C 29.0064,44.2528 30.5064,44.2528 32,45.5C 32.7354,49.8134 33.2354,54.1467 33.5,58.5 Z"/></g>
<g><path style="opacity:1" fill="#f0954c" d="M 47.5,58.5 C 46.5,58.5 45.5,58.5 44.5,58.5C 43.1667,58.5 41.8333,58.5 40.5,58.5C 39.5,58.5 38.5,58.5 37.5,58.5C 38.911,56.461 40.911,55.461 43.5,55.5C 42.3925,50.5352 40.2258,50.2018 37,54.5C 34.8461,50.6063 36.1795,48.6063 41,48.5C 46.3827,49.5735 48.5494,52.9069 47.5,58.5 Z"/></g>
<g><path style="opacity:1" fill="#ea824b" d="M 126.5,58.5 C 127.779,57.032 129.446,56.3653 131.5,56.5C 131.483,58.5648 131.15,60.5648 130.5,62.5C 126.426,63.9904 122.426,63.8238 118.5,62C 117.398,59.5991 117.231,57.0991 118,54.5C 119.046,56.0905 120.213,57.5905 121.5,59C 123.387,59.7796 125.054,59.6129 126.5,58.5 Z"/></g>
<g><path style="opacity:1" fill="#ea824c" d="M 19.5,52.5 C 19.4724,57.8617 19.8058,63.1951 20.5,68.5C 18.549,68.7733 17.049,68.1066 16,66.5C 15.5012,62.5138 15.3345,58.5138 15.5,54.5C 17.1993,54.4729 18.5326,53.8062 19.5,52.5 Z"/></g>
<g><path style="opacity:1" fill="#e87d4a" d="M 33.5,58.5 C 33.6646,61.5184 33.498,64.5184 33,67.5C 31.3333,68.8333 29.6667,68.8333 28,67.5C 27.439,64.7206 26.6056,62.054 25.5,59.5C 27.9479,58.5269 30.6146,58.1936 33.5,58.5 Z"/></g>
<g><path style="opacity:1" fill="#e97f4c" d="M 37.5,58.5 C 38.5,58.5 39.5,58.5 40.5,58.5C 38.4664,62.9081 39.6331,64.5748 44,63.5C 44.4935,61.8659 44.6602,60.1992 44.5,58.5C 45.5,58.5 46.5,58.5 47.5,58.5C 48.4025,61.3915 48.7359,64.3915 48.5,67.5C 44.7604,67.7592 41.0938,67.4259 37.5,66.5C 34.866,63.7545 34.866,61.0878 37.5,58.5 Z"/></g>
<g><path style="opacity:1" fill="#feba90" d="M 40.5,58.5 C 41.8333,58.5 43.1667,58.5 44.5,58.5C 44.6602,60.1992 44.4935,61.8659 44,63.5C 39.6331,64.5748 38.4664,62.9081 40.5,58.5 Z"/></g>
<g><path style="opacity:1" fill="#eb834d" d="M 51.5,51.5 C 52.404,52.209 52.7373,53.209 52.5,54.5C 53.5,54.5 54.5,54.5 55.5,54.5C 56.0359,57.8462 56.7026,61.1796 57.5,64.5C 56.8826,66.6365 55.5493,67.4698 53.5,67C 52.1409,61.9615 51.4742,56.7948 51.5,51.5 Z"/></g>
<g><path style="opacity:1" fill="#e9804b" d="M 59.5,54.5 C 60.5,54.5 61.5,54.5 62.5,54.5C 62.1175,61.6534 64.9508,63.6534 71,60.5C 71.923,64.5814 70.2563,66.5814 66,66.5C 63.9658,66.6464 62.2991,65.9797 61,64.5C 59.6842,61.3117 59.1842,57.9783 59.5,54.5 Z"/></g>
<g><path style="opacity:1" fill="#ea824d" d="M 74.5,54.5 C 75.8333,54.5 77.1667,54.5 78.5,54.5C 78.3531,59.2142 78.6864,63.8809 79.5,68.5C 77.8333,68.5 76.1667,68.5 74.5,68.5C 74.5,63.8333 74.5,59.1667 74.5,54.5 Z"/></g>
<g><path style="opacity:1" fill="#ea824c" d="M 87.5,52.5 C 88.6484,56.9811 88.8151,61.6478 88,66.5C 86.6439,67.3802 85.1439,67.7135 83.5,67.5C 84.0802,63.19 84.4135,58.8566 84.5,54.5C 86.1788,54.7148 87.1788,54.0481 87.5,52.5 Z"/></g>
<g><path style="opacity:1" fill="#eb834b" d="M 91.5,51.5 C 92.8333,51.5 94.1667,51.5 95.5,51.5C 96.6576,56.3512 97.6576,61.3512 98.5,66.5C 96.5,66.5 94.5,66.5 92.5,66.5C 91.8363,61.5275 91.5029,56.5275 91.5,51.5 Z"/></g>
<g><path style="opacity:1" fill="#f38e5f" d="M 99.5,54.5 C 101.167,54.5 102.833,54.5 104.5,54.5C 106.979,58.4111 109.812,58.4111 113,54.5C 113.667,55.8333 113.667,57.1667 113,58.5C 111.193,59.4792 110.193,60.8126 110,62.5C 112.97,64.4013 116.136,65.9013 119.5,67C 116.46,67.3201 113.46,67.3201 110.5,67C 114.809,68.7301 119.142,69.8967 123.5,70.5C 115.203,72.8424 108.203,70.8424 102.5,64.5C 101.247,61.2328 100.247,57.8994 99.5,54.5 Z"/></g>
<g><path style="opacity:1" fill="#f77c4e" d="M 72.5,70.5 C 74.8333,70.5 77.1667,70.5 79.5,70.5C 84.1995,72.423 89.1995,73.5897 94.5,74C 102.374,75.4456 110.208,75.9456 118,75.5C 124.719,76.2438 130.386,74.2438 135,69.5C 128.951,82.3687 118.618,88.0354 104,86.5C 87.7321,87.4161 73.8988,82.2494 62.5,71C 65.8168,70.5017 69.1501,70.335 72.5,70.5 Z"/></g>
<g><path style="opacity:0.98" fill="#d08e64" d="M 434.5,313.5 C 436.027,313.427 437.027,314.094 437.5,315.5C 435.973,315.573 434.973,314.906 434.5,313.5 Z"/></g>
<g><path style="opacity:0.992" fill="#e89d6d" d="M 443.5,318.5 C 445.027,318.427 446.027,319.094 446.5,320.5C 444.973,320.573 443.973,319.906 443.5,318.5 Z"/></g>
<g><path style="opacity:0.882" fill="#e3996b" d="M 456.5,325.5 C 459.992,326.41 462.992,328.076 465.5,330.5C 462.008,329.59 459.008,327.924 456.5,325.5 Z"/></g>
<g><path style="opacity:0.933" fill="#dc9364" d="M 397.5,352.5 C 400.331,353.079 402.664,354.412 404.5,356.5C 401.669,355.921 399.336,354.588 397.5,352.5 Z"/></g>
<g><path style="opacity:1" fill="#d59064" d="M 412.5,360.5 C 414.027,360.427 415.027,361.094 415.5,362.5C 413.973,362.573 412.973,361.906 412.5,360.5 Z"/></g>
<g><path style="opacity:0.871" fill="#e79d70" d="M 349.5,388.5 C 351.674,388.75 353.341,389.75 354.5,391.5C 352.326,391.25 350.659,390.25 349.5,388.5 Z"/></g>
<g><path style="opacity:0.835" fill="#e1996c" d="M 354.5,391.5 C 356.027,391.427 357.027,392.094 357.5,393.5C 355.973,393.573 354.973,392.906 354.5,391.5 Z"/></g>
<g><path style="opacity:0.996" fill="#cb8960" d="M 361.5,395.5 C 363.027,395.427 364.027,396.094 364.5,397.5C 362.973,397.573 361.973,396.906 361.5,395.5 Z"/></g>
</svg>
